<svg width="1024" height="753" viewBox="0 0 1024 753" fill="none" xmlns="http://www.w3.org/2000/svg">
<g opacity="0.2" filter="url(#filter0_f_175_198)">
<ellipse cx="522.5" cy="24" rx="670.5" ry="350" fill="#338AF3"/>
</g>
<g opacity="0.6">
<path d="M503.93 374C505.356 374 506.436 374.605 507.17 375.815C507.916 377.011 508.29 378.753 508.29 381.04C508.29 383.327 507.916 385.075 507.17 386.285C506.436 387.495 505.356 388.1 503.93 388.1C502.517 388.1 501.437 387.495 500.69 386.285C499.943 385.075 499.57 383.327 499.57 381.04C499.57 378.767 499.943 377.025 500.69 375.815C501.437 374.605 502.517 374 503.93 374ZM500.99 381.04C500.99 382.662 501.137 383.932 501.43 384.849L505.87 376.014C505.403 375.389 504.756 375.077 503.93 375.077C503.01 375.077 502.29 375.569 501.77 376.553C501.25 377.523 500.99 379.019 500.99 381.04ZM503.93 387.003C504.863 387.003 505.59 386.518 506.11 385.547C506.63 384.564 506.89 383.061 506.89 381.04C506.89 379.325 506.723 377.995 506.39 377.051L501.95 385.966C502.43 386.658 503.09 387.003 503.93 387.003Z" fill="url(#paint0_linear_175_198)"/>
<path d="M505.13 409.637H508.07V410.694H500.45V409.637H503.85V398.428L500.61 400.363L500.05 399.465L504.05 396.992H505.13V409.637Z" fill="url(#paint1_linear_175_198)"/>
<path d="M503.93 419.586C505.356 419.586 506.436 420.191 507.17 421.4C507.916 422.597 508.29 424.339 508.29 426.626C508.29 428.913 507.916 430.661 507.17 431.871C506.436 433.081 505.356 433.686 503.93 433.686C502.517 433.686 501.437 433.081 500.69 431.871C499.943 430.661 499.57 428.913 499.57 426.626C499.57 424.352 499.943 422.61 500.69 421.4C501.437 420.191 502.517 419.586 503.93 419.586ZM500.99 426.626C500.99 428.248 501.137 429.518 501.43 430.435L505.87 421.6C505.403 420.975 504.756 420.663 503.93 420.663C503.01 420.663 502.29 421.155 501.77 422.138C501.25 423.109 500.99 424.605 500.99 426.626ZM503.93 432.589C504.863 432.589 505.59 432.104 506.11 431.133C506.63 430.149 506.89 428.647 506.89 426.626C506.89 424.911 506.723 423.581 506.39 422.637L501.95 431.552C502.43 432.243 503.09 432.589 503.93 432.589Z" fill="url(#paint2_linear_175_198)"/>
<path d="M505.13 455.222H508.07V456.279H500.45V455.222H503.85V444.014L500.61 445.948L500.05 445.051L504.05 442.578H505.13V455.222Z" fill="url(#paint3_linear_175_198)"/>
<path d="M505.13 478.015H508.07V479.072H500.45V478.015H503.85V466.807L500.61 468.741L500.05 467.844L504.05 465.371H505.13V478.015Z" fill="url(#paint4_linear_175_198)"/>
<path d="M503.93 487.964C505.356 487.964 506.436 488.569 507.17 489.779C507.916 490.976 508.29 492.717 508.29 495.004C508.29 497.291 507.916 499.039 507.17 500.249C506.436 501.459 505.356 502.064 503.93 502.064C502.517 502.064 501.437 501.459 500.69 500.249C499.943 499.039 499.57 497.291 499.57 495.004C499.57 492.731 499.943 490.989 500.69 489.779C501.437 488.569 502.517 487.964 503.93 487.964ZM500.99 495.004C500.99 496.626 501.137 497.896 501.43 498.813L505.87 489.978C505.403 489.353 504.756 489.041 503.93 489.041C503.01 489.041 502.29 489.533 501.77 490.517C501.25 491.487 500.99 492.983 500.99 495.004ZM503.93 500.967C504.863 500.967 505.59 500.482 506.11 499.511C506.63 498.528 506.89 497.025 506.89 495.004C506.89 493.289 506.723 491.959 506.39 491.015L501.95 499.93C502.43 500.622 503.09 500.967 503.93 500.967Z" fill="url(#paint5_linear_175_198)"/>
<path d="M505.13 523.601H508.07V524.658H500.45V523.601H503.85V512.392L500.61 514.327L500.05 513.429L504.05 510.956H505.13V523.601Z" fill="url(#paint6_linear_175_198)"/>
<path d="M503.93 533.55C505.356 533.55 506.436 534.155 507.17 535.365C507.916 536.561 508.29 538.303 508.29 540.59C508.29 542.877 507.916 544.625 507.17 545.835C506.436 547.045 505.356 547.65 503.93 547.65C502.517 547.65 501.437 547.045 500.69 545.835C499.943 544.625 499.57 542.877 499.57 540.59C499.57 538.316 499.943 536.574 500.69 535.365C501.437 534.155 502.517 533.55 503.93 533.55ZM500.99 540.59C500.99 542.212 501.137 543.482 501.43 544.399L505.87 535.564C505.403 534.939 504.756 534.627 503.93 534.627C503.01 534.627 502.29 535.119 501.77 536.102C501.25 537.073 500.99 538.569 500.99 540.59ZM503.93 546.553C504.863 546.553 505.59 546.068 506.11 545.097C506.63 544.113 506.89 542.611 506.89 540.59C506.89 538.875 506.723 537.545 506.39 536.601L501.95 545.516C502.43 546.207 503.09 546.553 503.93 546.553Z" fill="url(#paint7_linear_175_198)"/>
<path d="M503.93 556.342C505.356 556.342 506.436 556.947 507.17 558.157C507.916 559.354 508.29 561.096 508.29 563.383C508.29 565.669 507.916 567.418 507.17 568.628C506.436 569.838 505.356 570.443 503.93 570.443C502.517 570.443 501.437 569.838 500.69 568.628C499.943 567.418 499.57 565.669 499.57 563.383C499.57 561.109 499.943 559.367 500.69 558.157C501.437 556.947 502.517 556.342 503.93 556.342ZM500.99 563.383C500.99 565.005 501.137 566.274 501.43 567.192L505.87 558.357C505.403 557.732 504.756 557.419 503.93 557.419C503.01 557.419 502.29 557.911 501.77 558.895C501.25 559.866 500.99 561.362 500.99 563.383ZM503.93 569.346C504.863 569.346 505.59 568.86 506.11 567.89C506.63 566.906 506.89 565.404 506.89 563.383C506.89 561.667 506.723 560.338 506.39 559.394L501.95 568.309C502.43 569 503.09 569.346 503.93 569.346Z" fill="url(#paint8_linear_175_198)"/>
<path d="M505.13 591.979H508.07V593.036H500.45V591.979H503.85V580.771L500.61 582.705L500.05 581.808L504.05 579.335H505.13V591.979Z" fill="url(#paint9_linear_175_198)"/>
<path d="M503.93 601.928C505.356 601.928 506.436 602.533 507.17 603.743C507.916 604.94 508.29 606.681 508.29 608.968C508.29 611.255 507.916 613.003 507.17 614.213C506.436 615.423 505.356 616.028 503.93 616.028C502.517 616.028 501.437 615.423 500.69 614.213C499.943 613.003 499.57 611.255 499.57 608.968C499.57 606.695 499.943 604.953 500.69 603.743C501.437 602.533 502.517 601.928 503.93 601.928ZM500.99 608.968C500.99 610.59 501.137 611.86 501.43 612.777L505.87 603.942C505.403 603.317 504.756 603.005 503.93 603.005C503.01 603.005 502.29 603.497 501.77 604.481C501.25 605.451 500.99 606.947 500.99 608.968ZM503.93 614.931C504.863 614.931 505.59 614.446 506.11 613.475C506.63 612.492 506.89 610.989 506.89 608.968C506.89 607.253 506.723 605.923 506.39 604.979L501.95 613.894C502.43 614.586 503.09 614.931 503.93 614.931Z" fill="url(#paint10_linear_175_198)"/>
<path d="M505.13 637.565H508.07V638.622H500.45V637.565H503.85V626.356L500.61 628.291L500.05 627.393L504.05 624.92H505.13V637.565Z" fill="url(#paint11_linear_175_198)"/>
<path d="M505.13 660.357H508.07V661.414H500.45V660.357H503.85V649.149L500.61 651.084L500.05 650.186L504.05 647.713H505.13V660.357Z" fill="url(#paint12_linear_175_198)"/>
<path d="M541.07 419.586C542.497 419.586 543.577 420.191 544.31 421.4C545.057 422.597 545.43 424.339 545.43 426.626C545.43 428.913 545.057 430.661 544.31 431.871C543.577 433.081 542.497 433.686 541.07 433.686C539.657 433.686 538.577 433.081 537.83 431.871C537.084 430.661 536.71 428.913 536.71 426.626C536.71 424.352 537.084 422.61 537.83 421.4C538.577 420.191 539.657 419.586 541.07 419.586ZM538.13 426.626C538.13 428.248 538.277 429.518 538.57 430.435L543.01 421.6C542.543 420.975 541.897 420.663 541.07 420.663C540.15 420.663 539.43 421.155 538.91 422.138C538.39 423.109 538.13 424.605 538.13 426.626ZM541.07 432.589C542.003 432.589 542.73 432.104 543.25 431.133C543.77 430.149 544.03 428.647 544.03 426.626C544.03 424.911 543.863 423.581 543.53 422.637L539.09 431.552C539.57 432.243 540.23 432.589 541.07 432.589Z" fill="url(#paint13_linear_175_198)"/>
<path d="M542.27 455.222H545.21V456.279H537.59V455.222H540.99V444.014L537.75 445.948L537.19 445.051L541.19 442.578H542.27V455.222Z" fill="url(#paint14_linear_175_198)"/>
<path d="M541.07 465.171C542.497 465.171 543.577 465.776 544.31 466.986C545.057 468.183 545.43 469.924 545.43 472.211C545.43 474.498 545.057 476.247 544.31 477.457C543.577 478.666 542.497 479.271 541.07 479.271C539.657 479.271 538.577 478.666 537.83 477.457C537.084 476.247 536.71 474.498 536.71 472.211C536.71 469.938 537.084 468.196 537.83 466.986C538.577 465.776 539.657 465.171 541.07 465.171ZM538.13 472.211C538.13 473.833 538.277 475.103 538.57 476.021L543.01 467.186C542.543 466.561 541.897 466.248 541.07 466.248C540.15 466.248 539.43 466.74 538.91 467.724C538.39 468.695 538.13 470.19 538.13 472.211ZM541.07 478.174C542.003 478.174 542.73 477.689 543.25 476.719C543.77 475.735 544.03 474.232 544.03 472.211C544.03 470.496 543.863 469.167 543.53 468.223L539.09 477.137C539.57 477.829 540.23 478.174 541.07 478.174Z" fill="url(#paint15_linear_175_198)"/>
<path d="M541.07 487.964C542.497 487.964 543.577 488.569 544.31 489.779C545.057 490.976 545.43 492.717 545.43 495.004C545.43 497.291 545.057 499.039 544.31 500.249C543.577 501.459 542.497 502.064 541.07 502.064C539.657 502.064 538.577 501.459 537.83 500.249C537.084 499.039 536.71 497.291 536.71 495.004C536.71 492.731 537.084 490.989 537.83 489.779C538.577 488.569 539.657 487.964 541.07 487.964ZM538.13 495.004C538.13 496.626 538.277 497.896 538.57 498.813L543.01 489.978C542.543 489.353 541.897 489.041 541.07 489.041C540.15 489.041 539.43 489.533 538.91 490.517C538.39 491.487 538.13 492.983 538.13 495.004ZM541.07 500.967C542.003 500.967 542.73 500.482 543.25 499.511C543.77 498.528 544.03 497.025 544.03 495.004C544.03 493.289 543.863 491.959 543.53 491.015L539.09 499.93C539.57 500.622 540.23 500.967 541.07 500.967Z" fill="url(#paint16_linear_175_198)"/>
<path d="M542.27 523.601H545.21V524.658H537.59V523.601H540.99V512.392L537.75 514.327L537.19 513.429L541.19 510.956H542.27V523.601Z" fill="url(#paint17_linear_175_198)"/>
<path d="M541.07 533.55C542.497 533.55 543.577 534.155 544.31 535.365C545.057 536.561 545.43 538.303 545.43 540.59C545.43 542.877 545.057 544.625 544.31 545.835C543.577 547.045 542.497 547.65 541.07 547.65C539.657 547.65 538.577 547.045 537.83 545.835C537.084 544.625 536.71 542.877 536.71 540.59C536.71 538.316 537.084 536.574 537.83 535.365C538.577 534.155 539.657 533.55 541.07 533.55ZM538.13 540.59C538.13 542.212 538.277 543.482 538.57 544.399L543.01 535.564C542.543 534.939 541.897 534.627 541.07 534.627C540.15 534.627 539.43 535.119 538.91 536.102C538.39 537.073 538.13 538.569 538.13 540.59ZM541.07 546.553C542.003 546.553 542.73 546.068 543.25 545.097C543.77 544.113 544.03 542.611 544.03 540.59C544.03 538.875 543.863 537.545 543.53 536.601L539.09 545.516C539.57 546.207 540.23 546.553 541.07 546.553Z" fill="url(#paint18_linear_175_198)"/>
<path d="M542.27 569.186H545.21V570.243H537.59V569.186H540.99V557.978L537.75 559.912L537.19 559.015L541.19 556.542H542.27V569.186Z" fill="url(#paint19_linear_175_198)"/>
<path d="M541.07 579.135C542.497 579.135 543.577 579.74 544.31 580.95C545.057 582.147 545.43 583.888 545.43 586.175C545.43 588.462 545.057 590.211 544.31 591.421C543.577 592.63 542.497 593.235 541.07 593.235C539.657 593.235 538.577 592.63 537.83 591.421C537.084 590.211 536.71 588.462 536.71 586.175C536.71 583.902 537.084 582.16 537.83 580.95C538.577 579.74 539.657 579.135 541.07 579.135ZM538.13 586.175C538.13 587.797 538.277 589.067 538.57 589.985L543.01 581.15C542.543 580.525 541.897 580.212 541.07 580.212C540.15 580.212 539.43 580.704 538.91 581.688C538.39 582.659 538.13 584.154 538.13 586.175ZM541.07 592.139C542.003 592.139 542.73 591.653 543.25 590.683C543.77 589.699 544.03 588.196 544.03 586.175C544.03 584.46 543.863 583.131 543.53 582.187L539.09 591.101C539.57 591.793 540.23 592.139 541.07 592.139Z" fill="url(#paint20_linear_175_198)"/>
<path d="M541.07 601.928C542.497 601.928 543.577 602.533 544.31 603.743C545.057 604.94 545.43 606.681 545.43 608.968C545.43 611.255 545.057 613.003 544.31 614.213C543.577 615.423 542.497 616.028 541.07 616.028C539.657 616.028 538.577 615.423 537.83 614.213C537.084 613.003 536.71 611.255 536.71 608.968C536.71 606.695 537.084 604.953 537.83 603.743C538.577 602.533 539.657 601.928 541.07 601.928ZM538.13 608.968C538.13 610.59 538.277 611.86 538.57 612.777L543.01 603.942C542.543 603.317 541.897 603.005 541.07 603.005C540.15 603.005 539.43 603.497 538.91 604.481C538.39 605.451 538.13 606.947 538.13 608.968ZM541.07 614.931C542.003 614.931 542.73 614.446 543.25 613.475C543.77 612.492 544.03 610.989 544.03 608.968C544.03 607.253 543.863 605.923 543.53 604.979L539.09 613.894C539.57 614.586 540.23 614.931 541.07 614.931Z" fill="url(#paint21_linear_175_198)"/>
<path d="M542.27 637.565H545.21V638.622H537.59V637.565H540.99V626.356L537.75 628.291L537.19 627.393L541.19 624.92H542.27V637.565Z" fill="url(#paint22_linear_175_198)"/>
<path d="M541.07 647.514C542.497 647.514 543.577 648.119 544.31 649.329C545.057 650.525 545.43 652.267 545.43 654.554C545.43 656.841 545.057 658.589 544.31 659.799C543.577 661.009 542.497 661.614 541.07 661.614C539.657 661.614 538.577 661.009 537.83 659.799C537.084 658.589 536.71 656.841 536.71 654.554C536.71 652.28 537.084 650.538 537.83 649.329C538.577 648.119 539.657 647.514 541.07 647.514ZM538.13 654.554C538.13 656.176 538.277 657.446 538.57 658.363L543.01 649.528C542.543 648.903 541.897 648.591 541.07 648.591C540.15 648.591 539.43 649.083 538.91 650.066C538.39 651.037 538.13 652.533 538.13 654.554ZM541.07 660.517C542.003 660.517 542.73 660.032 543.25 659.061C543.77 658.077 544.03 656.575 544.03 654.554C544.03 652.839 543.863 651.509 543.53 650.565L539.09 659.48C539.57 660.171 540.23 660.517 541.07 660.517Z" fill="url(#paint23_linear_175_198)"/>
<path d="M542.27 683.15H545.21V684.207H537.59V683.15H540.99V671.942L537.75 673.876L537.19 672.979L541.19 670.506H542.27V683.15Z" fill="url(#paint24_linear_175_198)"/>
<path d="M542.27 705.943H545.21V707H537.59V705.943H540.99V694.735L537.75 696.669L537.19 695.772L541.19 693.299H542.27V705.943Z" fill="url(#paint25_linear_175_198)"/>
<path d="M485.36 442.378C486.786 442.378 487.866 442.983 488.599 444.193C489.346 445.39 489.719 447.132 489.719 449.419C489.719 451.705 489.346 453.454 488.599 454.664C487.866 455.874 486.786 456.479 485.36 456.479C483.946 456.479 482.867 455.874 482.12 454.664C481.373 453.454 481 451.705 481 449.419C481 447.145 481.373 445.403 482.12 444.193C482.867 442.983 483.946 442.378 485.36 442.378ZM482.42 449.419C482.42 451.041 482.567 452.31 482.86 453.228L487.3 444.393C486.833 443.768 486.186 443.455 485.36 443.455C484.44 443.455 483.72 443.947 483.2 444.931C482.68 445.902 482.42 447.398 482.42 449.419ZM485.36 455.382C486.293 455.382 487.02 454.896 487.54 453.926C488.06 452.942 488.319 451.44 488.319 449.419C488.319 447.703 488.153 446.374 487.82 445.43L483.38 454.345C483.86 455.036 484.52 455.382 485.36 455.382Z" fill="url(#paint26_linear_175_198)"/>
<path d="M485.36 465.171C486.786 465.171 487.866 465.776 488.599 466.986C489.346 468.183 489.719 469.924 489.719 472.211C489.719 474.498 489.346 476.247 488.599 477.457C487.866 478.666 486.786 479.271 485.36 479.271C483.946 479.271 482.867 478.666 482.12 477.457C481.373 476.247 481 474.498 481 472.211C481 469.938 481.373 468.196 482.12 466.986C482.867 465.776 483.946 465.171 485.36 465.171ZM482.42 472.211C482.42 473.833 482.567 475.103 482.86 476.021L487.3 467.186C486.833 466.561 486.186 466.248 485.36 466.248C484.44 466.248 483.72 466.74 483.2 467.724C482.68 468.695 482.42 470.19 482.42 472.211ZM485.36 478.174C486.293 478.174 487.02 477.689 487.54 476.719C488.06 475.735 488.319 474.232 488.319 472.211C488.319 470.496 488.153 469.167 487.82 468.223L483.38 477.137C483.86 477.829 484.52 478.174 485.36 478.174Z" fill="url(#paint27_linear_175_198)"/>
<path d="M486.56 500.808H489.499V501.865H481.88V500.808H485.28V489.599L482.04 491.534L481.48 490.636L485.48 488.163H486.56V500.808Z" fill="url(#paint28_linear_175_198)"/>
<path d="M485.36 510.757C486.786 510.757 487.866 511.362 488.599 512.572C489.346 513.768 489.719 515.51 489.719 517.797C489.719 520.084 489.346 521.832 488.599 523.042C487.866 524.252 486.786 524.857 485.36 524.857C483.946 524.857 482.867 524.252 482.12 523.042C481.373 521.832 481 520.084 481 517.797C481 515.523 481.373 513.782 482.12 512.572C482.867 511.362 483.946 510.757 485.36 510.757ZM482.42 517.797C482.42 519.419 482.567 520.689 482.86 521.606L487.3 512.771C486.833 512.146 486.186 511.834 485.36 511.834C484.44 511.834 483.72 512.326 483.2 513.31C482.68 514.28 482.42 515.776 482.42 517.797ZM485.36 523.76C486.293 523.76 487.02 523.275 487.54 522.304C488.06 521.32 488.319 519.818 488.319 517.797C488.319 516.082 488.153 514.752 487.82 513.808L483.38 522.723C483.86 523.414 484.52 523.76 485.36 523.76Z" fill="url(#paint29_linear_175_198)"/>
<path d="M486.56 546.393H489.499V547.45H481.88V546.393H485.28V535.185L482.04 537.12L481.48 536.222L485.48 533.749H486.56V546.393Z" fill="url(#paint30_linear_175_198)"/>
<path d="M486.56 569.186H489.499V570.243H481.88V569.186H485.28V557.978L482.04 559.912L481.48 559.015L485.48 556.542H486.56V569.186Z" fill="url(#paint31_linear_175_198)"/>
<path d="M523.7 409.637H526.64V410.694H519.02V409.637H522.42V398.428L519.18 400.363L518.62 399.465L522.62 396.992H523.7V409.637Z" fill="url(#paint32_linear_175_198)"/>
<path d="M522.5 419.586C523.927 419.586 525.006 420.191 525.74 421.4C526.486 422.597 526.86 424.339 526.86 426.626C526.86 428.913 526.486 430.661 525.74 431.871C525.006 433.081 523.927 433.686 522.5 433.686C521.087 433.686 520.007 433.081 519.26 431.871C518.514 430.661 518.14 428.913 518.14 426.626C518.14 424.352 518.514 422.61 519.26 421.4C520.007 420.191 521.087 419.586 522.5 419.586ZM519.56 426.626C519.56 428.248 519.707 429.518 520 430.435L524.44 421.6C523.973 420.975 523.327 420.663 522.5 420.663C521.58 420.663 520.86 421.155 520.34 422.138C519.82 423.109 519.56 424.605 519.56 426.626ZM522.5 432.589C523.433 432.589 524.16 432.104 524.68 431.133C525.2 430.149 525.46 428.647 525.46 426.626C525.46 424.911 525.293 423.581 524.96 422.637L520.52 431.552C521 432.243 521.66 432.589 522.5 432.589Z" fill="url(#paint33_linear_175_198)"/>
<path d="M523.7 455.222H526.64V456.279H519.02V455.222H522.42V444.014L519.18 445.948L518.62 445.051L522.62 442.578H523.7V455.222Z" fill="url(#paint34_linear_175_198)"/>
<path d="M523.7 478.015H526.64V479.072H519.02V478.015H522.42V466.807L519.18 468.741L518.62 467.844L522.62 465.371H523.7V478.015Z" fill="url(#paint35_linear_175_198)"/>
<path d="M522.5 487.964C523.927 487.964 525.006 488.569 525.74 489.779C526.486 490.976 526.86 492.717 526.86 495.004C526.86 497.291 526.486 499.039 525.74 500.249C525.006 501.459 523.927 502.064 522.5 502.064C521.087 502.064 520.007 501.459 519.26 500.249C518.514 499.039 518.14 497.291 518.14 495.004C518.14 492.731 518.514 490.989 519.26 489.779C520.007 488.569 521.087 487.964 522.5 487.964ZM519.56 495.004C519.56 496.626 519.707 497.896 520 498.813L524.44 489.978C523.973 489.353 523.327 489.041 522.5 489.041C521.58 489.041 520.86 489.533 520.34 490.517C519.82 491.487 519.56 492.983 519.56 495.004ZM522.5 500.967C523.433 500.967 524.16 500.482 524.68 499.511C525.2 498.528 525.46 497.025 525.46 495.004C525.46 493.289 525.293 491.959 524.96 491.015L520.52 499.93C521 500.622 521.66 500.967 522.5 500.967Z" fill="url(#paint36_linear_175_198)"/>
<path d="M523.7 523.601H526.64V524.658H519.02V523.601H522.42V512.392L519.18 514.327L518.62 513.429L522.62 510.956H523.7V523.601Z" fill="url(#paint37_linear_175_198)"/>
<path d="M523.7 546.393H526.64V547.45H519.02V546.393H522.42V535.185L519.18 537.12L518.62 536.222L522.62 533.749H523.7V546.393Z" fill="url(#paint38_linear_175_198)"/>
<path d="M522.5 556.342C523.927 556.342 525.006 556.947 525.74 558.157C526.486 559.354 526.86 561.096 526.86 563.383C526.86 565.669 526.486 567.418 525.74 568.628C525.006 569.838 523.927 570.443 522.5 570.443C521.087 570.443 520.007 569.838 519.26 568.628C518.514 567.418 518.14 565.669 518.14 563.383C518.14 561.109 518.514 559.367 519.26 558.157C520.007 556.947 521.087 556.342 522.5 556.342ZM519.56 563.383C519.56 565.005 519.707 566.274 520 567.192L524.44 558.357C523.973 557.732 523.327 557.419 522.5 557.419C521.58 557.419 520.86 557.911 520.34 558.895C519.82 559.866 519.56 561.362 519.56 563.383ZM522.5 569.346C523.433 569.346 524.16 568.86 524.68 567.89C525.2 566.906 525.46 565.404 525.46 563.383C525.46 561.667 525.293 560.338 524.96 559.394L520.52 568.309C521 569 521.66 569.346 522.5 569.346Z" fill="url(#paint39_linear_175_198)"/>
<path d="M523.7 591.979H526.64V593.036H519.02V591.979H522.42V580.771L519.18 582.705L518.62 581.808L522.62 579.335H523.7V591.979Z" fill="url(#paint40_linear_175_198)"/>
<path d="M522.5 601.928C523.927 601.928 525.006 602.533 525.74 603.743C526.486 604.94 526.86 606.681 526.86 608.968C526.86 611.255 526.486 613.003 525.74 614.213C525.006 615.423 523.927 616.028 522.5 616.028C521.087 616.028 520.007 615.423 519.26 614.213C518.514 613.003 518.14 611.255 518.14 608.968C518.14 606.695 518.514 604.953 519.26 603.743C520.007 602.533 521.087 601.928 522.5 601.928ZM519.56 608.968C519.56 610.59 519.707 611.86 520 612.777L524.44 603.942C523.973 603.317 523.327 603.005 522.5 603.005C521.58 603.005 520.86 603.497 520.34 604.481C519.82 605.451 519.56 606.947 519.56 608.968ZM522.5 614.931C523.433 614.931 524.16 614.446 524.68 613.475C525.2 612.492 525.46 610.989 525.46 608.968C525.46 607.253 525.293 605.923 524.96 604.979L520.52 613.894C521 614.586 521.66 614.931 522.5 614.931Z" fill="url(#paint41_linear_175_198)"/>
<path d="M559.64 396.793C561.067 396.793 562.147 397.398 562.88 398.608C563.627 399.804 564 401.546 564 403.833C564 406.12 563.627 407.868 562.88 409.078C562.147 410.288 561.067 410.893 559.64 410.893C558.227 410.893 557.147 410.288 556.401 409.078C555.654 407.868 555.281 406.12 555.281 403.833C555.281 401.559 555.654 399.818 556.401 398.608C557.147 397.398 558.227 396.793 559.64 396.793ZM556.7 403.833C556.7 405.455 556.847 406.725 557.14 407.642L561.58 398.807C561.114 398.182 560.467 397.87 559.64 397.87C558.72 397.87 558 398.362 557.48 399.346C556.96 400.316 556.7 401.812 556.7 403.833ZM559.64 409.796C560.574 409.796 561.3 409.311 561.82 408.34C562.34 407.356 562.6 405.854 562.6 403.833C562.6 402.118 562.433 400.788 562.1 399.844L557.66 408.759C558.14 409.45 558.8 409.796 559.64 409.796Z" fill="url(#paint42_linear_175_198)"/>
<path d="M560.84 432.429H563.78V433.486H556.161V432.429H559.56V421.221L556.321 423.156L555.761 422.258L559.76 419.785H560.84V432.429Z" fill="url(#paint43_linear_175_198)"/>
<path d="M560.84 455.222H563.78V456.279H556.161V455.222H559.56V444.014L556.321 445.948L555.761 445.051L559.76 442.578H560.84V455.222Z" fill="url(#paint44_linear_175_198)"/>
<path d="M559.64 465.171C561.067 465.171 562.147 465.776 562.88 466.986C563.627 468.183 564 469.924 564 472.211C564 474.498 563.627 476.247 562.88 477.457C562.147 478.666 561.067 479.271 559.64 479.271C558.227 479.271 557.147 478.666 556.401 477.457C555.654 476.247 555.281 474.498 555.281 472.211C555.281 469.938 555.654 468.196 556.401 466.986C557.147 465.776 558.227 465.171 559.64 465.171ZM556.7 472.211C556.7 473.833 556.847 475.103 557.14 476.021L561.58 467.186C561.114 466.561 560.467 466.248 559.64 466.248C558.72 466.248 558 466.74 557.48 467.724C556.96 468.695 556.7 470.19 556.7 472.211ZM559.64 478.174C560.574 478.174 561.3 477.689 561.82 476.719C562.34 475.735 562.6 474.232 562.6 472.211C562.6 470.496 562.433 469.167 562.1 468.223L557.66 477.137C558.14 477.829 558.8 478.174 559.64 478.174Z" fill="url(#paint45_linear_175_198)"/>
<path d="M559.64 487.964C561.067 487.964 562.147 488.569 562.88 489.779C563.627 490.976 564 492.717 564 495.004C564 497.291 563.627 499.039 562.88 500.249C562.147 501.459 561.067 502.064 559.64 502.064C558.227 502.064 557.147 501.459 556.401 500.249C555.654 499.039 555.281 497.291 555.281 495.004C555.281 492.731 555.654 490.989 556.401 489.779C557.147 488.569 558.227 487.964 559.64 487.964ZM556.7 495.004C556.7 496.626 556.847 497.896 557.14 498.813L561.58 489.978C561.114 489.353 560.467 489.041 559.64 489.041C558.72 489.041 558 489.533 557.48 490.517C556.96 491.487 556.7 492.983 556.7 495.004ZM559.64 500.967C560.574 500.967 561.3 500.482 561.82 499.511C562.34 498.528 562.6 497.025 562.6 495.004C562.6 493.289 562.433 491.959 562.1 491.015L557.66 499.93C558.14 500.622 558.8 500.967 559.64 500.967Z" fill="url(#paint46_linear_175_198)"/>
</g>
<path d="M503.035 707C504.53 707 505.662 707.63 506.431 708.891C507.213 710.138 507.605 711.953 507.605 714.336C507.605 716.719 507.213 718.541 506.431 719.802C505.662 721.063 504.53 721.693 503.035 721.693C501.554 721.693 500.422 721.063 499.639 719.802C498.856 718.541 498.465 716.719 498.465 714.336C498.465 711.967 498.856 710.152 499.639 708.891C500.422 707.63 501.554 707 503.035 707ZM499.953 714.336C499.953 716.026 500.107 717.35 500.415 718.306L505.068 709.099C504.579 708.448 503.901 708.122 503.035 708.122C502.071 708.122 501.316 708.635 500.771 709.66C500.226 710.672 499.953 712.23 499.953 714.336ZM503.035 720.55C504.013 720.55 504.775 720.044 505.32 719.033C505.865 718.008 506.137 716.442 506.137 714.336C506.137 712.549 505.963 711.163 505.613 710.18L500.96 719.469C501.463 720.19 502.154 720.55 503.035 720.55Z" fill="url(#paint47_linear_175_198)" fill-opacity="0.6"/>
<path d="M504.293 744.135H507.374V745.236H499.387V744.135H502.951V732.455L499.555 734.471L498.968 733.536L503.161 730.959H504.293V744.135Z" fill="url(#paint48_linear_175_198)" fill-opacity="0.6"/>
<path d="M503.035 754.502C504.53 754.502 505.662 755.133 506.431 756.393C507.213 757.64 507.605 759.455 507.605 761.838C507.605 764.221 507.213 766.043 506.431 767.304C505.662 768.565 504.53 769.195 503.035 769.195C501.554 769.195 500.422 768.565 499.639 767.304C498.856 766.043 498.465 764.221 498.465 761.838C498.465 759.469 498.856 757.654 499.639 756.393C500.422 755.133 501.554 754.502 503.035 754.502ZM499.953 761.838C499.953 763.529 500.107 764.852 500.415 765.808L505.068 756.601C504.579 755.95 503.901 755.624 503.035 755.624C502.071 755.624 501.316 756.137 500.771 757.162C500.226 758.174 499.953 759.732 499.953 761.838ZM503.035 768.052C504.013 768.052 504.775 767.546 505.32 766.535C505.865 765.51 506.137 763.944 506.137 761.838C506.137 760.051 505.963 758.665 505.613 757.682L500.96 766.971C501.463 767.692 502.154 768.052 503.035 768.052Z" fill="url(#paint49_linear_175_198)" fill-opacity="0.6"/>
<path d="M504.293 791.637H507.374V792.738H499.387V791.637H502.951V779.957L499.555 781.973L498.968 781.038L503.161 778.461H504.293V791.637Z" fill="url(#paint50_linear_175_198)" fill-opacity="0.6"/>
<path d="M504.293 815.388H507.374V816.489H499.387V815.388H502.951V803.708L499.555 805.724L498.968 804.789L503.161 802.212H504.293V815.388Z" fill="url(#paint51_linear_175_198)" fill-opacity="0.6"/>
<path d="M503.035 825.755C504.53 825.755 505.662 826.386 506.431 827.646C507.213 828.893 507.605 830.708 507.605 833.091C507.605 835.474 507.213 837.296 506.431 838.557C505.662 839.818 504.53 840.448 503.035 840.448C501.554 840.448 500.422 839.818 499.639 838.557C498.856 837.296 498.465 835.474 498.465 833.091C498.465 830.722 498.856 828.907 499.639 827.646C500.422 826.386 501.554 825.755 503.035 825.755ZM499.953 833.091C499.953 834.782 500.107 836.105 500.415 837.061L505.068 827.854C504.579 827.203 503.901 826.878 503.035 826.878C502.071 826.878 501.316 827.39 500.771 828.415C500.226 829.427 499.953 830.985 499.953 833.091ZM503.035 839.305C504.013 839.305 504.775 838.8 505.32 837.788C505.865 836.763 506.137 835.197 506.137 833.091C506.137 831.304 505.963 829.919 505.613 828.935L500.96 838.225C501.463 838.945 502.154 839.305 503.035 839.305Z" fill="url(#paint52_linear_175_198)" fill-opacity="0.6"/>
<path d="M504.293 862.89H507.374V863.992H499.387V862.89H502.951V851.21L499.555 853.226L498.968 852.291L503.161 849.714H504.293V862.89Z" fill="url(#paint53_linear_175_198)" fill-opacity="0.6"/>
<path d="M503.035 873.257C504.53 873.257 505.662 873.888 506.431 875.149C507.213 876.396 507.605 878.211 507.605 880.594C507.605 882.977 507.213 884.798 506.431 886.059C505.662 887.32 504.53 887.95 503.035 887.95C501.554 887.95 500.422 887.32 499.639 886.059C498.856 884.798 498.465 882.977 498.465 880.594C498.465 878.224 498.856 876.409 499.639 875.149C500.422 873.888 501.554 873.257 503.035 873.257ZM499.953 880.594C499.953 882.284 500.107 883.607 500.415 884.563L505.068 875.356C504.579 874.705 503.901 874.38 503.035 874.38C502.071 874.38 501.316 874.892 500.771 875.918C500.226 876.929 499.953 878.488 499.953 880.594ZM503.035 886.807C504.013 886.807 504.775 886.302 505.32 885.29C505.865 884.265 506.137 882.699 506.137 880.594C506.137 878.806 505.963 877.421 505.613 876.437L500.96 885.727C501.463 886.447 502.154 886.807 503.035 886.807Z" fill="url(#paint54_linear_175_198)" fill-opacity="0.6"/>
<path d="M503.035 897.008C504.53 897.008 505.662 897.639 506.431 898.9C507.213 900.147 507.605 901.962 507.605 904.345C507.605 906.728 507.213 908.549 506.431 909.81C505.662 911.071 504.53 911.701 503.035 911.701C501.554 911.701 500.422 911.071 499.639 909.81C498.856 908.549 498.465 906.728 498.465 904.345C498.465 901.975 498.856 900.16 499.639 898.9C500.422 897.639 501.554 897.008 503.035 897.008ZM499.953 904.345C499.953 906.035 500.107 907.358 500.415 908.314L505.068 899.107C504.579 898.456 503.901 898.131 503.035 898.131C502.071 898.131 501.316 898.643 500.771 899.669C500.226 900.68 499.953 902.239 499.953 904.345ZM503.035 910.558C504.013 910.558 504.775 910.053 505.32 909.041C505.865 908.016 506.137 906.451 506.137 904.345C506.137 902.557 505.963 901.172 505.613 900.188L500.96 909.478C501.463 910.198 502.154 910.558 503.035 910.558Z" fill="url(#paint55_linear_175_198)" fill-opacity="0.6"/>
<path d="M504.293 934.143H507.374V935.245H499.387V934.143H502.951V922.464L499.555 924.48L498.968 923.544L503.161 920.967H504.293V934.143Z" fill="url(#paint56_linear_175_198)" fill-opacity="0.6"/>
<path d="M503.035 944.511C504.53 944.511 505.662 945.141 506.431 946.402C507.213 947.649 507.605 949.464 507.605 951.847C507.605 954.23 507.213 956.052 506.431 957.312C505.662 958.573 504.53 959.204 503.035 959.204C501.554 959.204 500.422 958.573 499.639 957.312C498.856 956.052 498.465 954.23 498.465 951.847C498.465 949.478 498.856 947.663 499.639 946.402C500.422 945.141 501.554 944.511 503.035 944.511ZM499.953 951.847C499.953 953.537 500.107 954.86 500.415 955.816L505.068 946.61C504.579 945.958 503.901 945.633 503.035 945.633C502.071 945.633 501.316 946.145 500.771 947.171C500.226 948.182 499.953 949.741 499.953 951.847ZM503.035 958.061C504.013 958.061 504.775 957.555 505.32 956.543C505.865 955.518 506.137 953.953 506.137 951.847C506.137 950.059 505.963 948.674 505.613 947.69L500.96 956.98C501.463 957.7 502.154 958.061 503.035 958.061Z" fill="url(#paint57_linear_175_198)" fill-opacity="0.6"/>
<path d="M504.293 981.645H507.374V982.747H499.387V981.645H502.951V969.966L499.555 971.982L498.968 971.046L503.161 968.469H504.293V981.645Z" fill="url(#paint58_linear_175_198)" fill-opacity="0.6"/>
<path d="M504.293 1005.4H507.374V1006.5H499.387V1005.4H502.951V993.717L499.555 995.733L498.968 994.798L503.161 992.221H504.293V1005.4Z" fill="url(#paint59_linear_175_198)" fill-opacity="0.6"/>
<path d="M541.965 754.502C543.46 754.502 544.592 755.133 545.361 756.393C546.144 757.64 546.535 759.455 546.535 761.838C546.535 764.221 546.144 766.043 545.361 767.304C544.592 768.565 543.46 769.195 541.965 769.195C540.484 769.195 539.352 768.565 538.569 767.304C537.787 766.043 537.395 764.221 537.395 761.838C537.395 759.469 537.787 757.654 538.569 756.393C539.352 755.133 540.484 754.502 541.965 754.502ZM538.884 761.838C538.884 763.529 539.037 764.852 539.345 765.808L543.998 756.601C543.509 755.95 542.832 755.624 541.965 755.624C541.001 755.624 540.246 756.137 539.701 757.162C539.156 758.174 538.884 759.732 538.884 761.838ZM541.965 768.052C542.943 768.052 543.705 767.546 544.25 766.535C544.795 765.51 545.068 763.944 545.068 761.838C545.068 760.051 544.893 758.665 544.543 757.682L539.89 766.971C540.393 767.692 541.085 768.052 541.965 768.052Z" fill="url(#paint60_linear_175_198)" fill-opacity="0.6"/>
<path d="M543.223 791.637H546.304V792.738H538.318V791.637H541.881V779.957L538.485 781.973L537.898 781.038L542.091 778.461H543.223V791.637Z" fill="url(#paint61_linear_175_198)" fill-opacity="0.6"/>
<path d="M541.965 802.004C543.46 802.004 544.592 802.635 545.361 803.895C546.144 805.142 546.535 806.957 546.535 809.34C546.535 811.723 546.144 813.545 545.361 814.806C544.592 816.067 543.46 816.697 541.965 816.697C540.484 816.697 539.352 816.067 538.569 814.806C537.787 813.545 537.395 811.723 537.395 809.34C537.395 806.971 537.787 805.156 538.569 803.895C539.352 802.635 540.484 802.004 541.965 802.004ZM538.884 809.34C538.884 811.031 539.037 812.354 539.345 813.31L543.998 804.103C543.509 803.452 542.832 803.126 541.965 803.126C541.001 803.126 540.246 803.639 539.701 804.664C539.156 805.676 538.884 807.234 538.884 809.34ZM541.965 815.554C542.943 815.554 543.705 815.049 544.25 814.037C544.795 813.012 545.068 811.446 545.068 809.34C545.068 807.553 544.893 806.168 544.543 805.184L539.89 814.474C540.393 815.194 541.085 815.554 541.965 815.554Z" fill="url(#paint62_linear_175_198)" fill-opacity="0.6"/>
<path d="M541.965 825.755C543.46 825.755 544.592 826.386 545.361 827.646C546.144 828.893 546.535 830.708 546.535 833.091C546.535 835.474 546.144 837.296 545.361 838.557C544.592 839.818 543.46 840.448 541.965 840.448C540.484 840.448 539.352 839.818 538.569 838.557C537.787 837.296 537.395 835.474 537.395 833.091C537.395 830.722 537.787 828.907 538.569 827.646C539.352 826.386 540.484 825.755 541.965 825.755ZM538.884 833.091C538.884 834.782 539.037 836.105 539.345 837.061L543.998 827.854C543.509 827.203 542.832 826.878 541.965 826.878C541.001 826.878 540.246 827.39 539.701 828.415C539.156 829.427 538.884 830.985 538.884 833.091ZM541.965 839.305C542.943 839.305 543.705 838.8 544.25 837.788C544.795 836.763 545.068 835.197 545.068 833.091C545.068 831.304 544.893 829.919 544.543 828.935L539.89 838.225C540.393 838.945 541.085 839.305 541.965 839.305Z" fill="url(#paint63_linear_175_198)" fill-opacity="0.6"/>
<path d="M543.223 862.89H546.304V863.992H538.318V862.89H541.881V851.21L538.485 853.226L537.898 852.291L542.091 849.714H543.223V862.89Z" fill="url(#paint64_linear_175_198)" fill-opacity="0.6"/>
<path d="M541.965 873.257C543.46 873.257 544.592 873.888 545.361 875.149C546.144 876.396 546.535 878.211 546.535 880.594C546.535 882.977 546.144 884.798 545.361 886.059C544.592 887.32 543.46 887.95 541.965 887.95C540.484 887.95 539.352 887.32 538.569 886.059C537.787 884.798 537.395 882.977 537.395 880.594C537.395 878.224 537.787 876.409 538.569 875.149C539.352 873.888 540.484 873.257 541.965 873.257ZM538.884 880.594C538.884 882.284 539.037 883.607 539.345 884.563L543.998 875.356C543.509 874.705 542.832 874.38 541.965 874.38C541.001 874.38 540.246 874.892 539.701 875.918C539.156 876.929 538.884 878.488 538.884 880.594ZM541.965 886.807C542.943 886.807 543.705 886.302 544.25 885.29C544.795 884.265 545.068 882.699 545.068 880.594C545.068 878.806 544.893 877.421 544.543 876.437L539.89 885.727C540.393 886.447 541.085 886.807 541.965 886.807Z" fill="url(#paint65_linear_175_198)" fill-opacity="0.6"/>
<path d="M543.223 910.392H546.304V911.494H538.318V910.392H541.881V898.713L538.485 900.728L537.898 899.793L542.091 897.216H543.223V910.392Z" fill="url(#paint66_linear_175_198)" fill-opacity="0.6"/>
<path d="M541.965 920.76C543.46 920.76 544.592 921.39 545.361 922.651C546.144 923.898 546.535 925.713 546.535 928.096C546.535 930.479 546.144 932.301 545.361 933.561C544.592 934.822 543.46 935.453 541.965 935.453C540.484 935.453 539.352 934.822 538.569 933.561C537.787 932.301 537.395 930.479 537.395 928.096C537.395 925.726 537.787 923.911 538.569 922.651C539.352 921.39 540.484 920.76 541.965 920.76ZM538.884 928.096C538.884 929.786 539.037 931.109 539.345 932.065L543.998 922.859C543.509 922.207 542.832 921.882 541.965 921.882C541.001 921.882 540.246 922.394 539.701 923.42C539.156 924.431 538.884 925.99 538.884 928.096ZM541.965 934.31C542.943 934.31 543.705 933.804 544.25 932.792C544.795 931.767 545.068 930.202 545.068 928.096C545.068 926.308 544.893 924.923 544.543 923.939L539.89 933.229C540.393 933.949 541.085 934.31 541.965 934.31Z" fill="url(#paint67_linear_175_198)" fill-opacity="0.6"/>
<path d="M541.965 944.511C543.46 944.511 544.592 945.141 545.361 946.402C546.144 947.649 546.535 949.464 546.535 951.847C546.535 954.23 546.144 956.052 545.361 957.312C544.592 958.573 543.46 959.204 541.965 959.204C540.484 959.204 539.352 958.573 538.569 957.312C537.787 956.052 537.395 954.23 537.395 951.847C537.395 949.478 537.787 947.663 538.569 946.402C539.352 945.141 540.484 944.511 541.965 944.511ZM538.884 951.847C538.884 953.537 539.037 954.86 539.345 955.816L543.998 946.61C543.509 945.958 542.832 945.633 541.965 945.633C541.001 945.633 540.246 946.145 539.701 947.171C539.156 948.182 538.884 949.741 538.884 951.847ZM541.965 958.061C542.943 958.061 543.705 957.555 544.25 956.543C544.795 955.518 545.068 953.953 545.068 951.847C545.068 950.059 544.893 948.674 544.543 947.69L539.89 956.98C540.393 957.7 541.085 958.061 541.965 958.061Z" fill="url(#paint68_linear_175_198)" fill-opacity="0.6"/>
<path d="M543.223 981.645H546.304V982.747H538.318V981.645H541.881V969.966L538.485 971.982L537.898 971.046L542.091 968.469H543.223V981.645Z" fill="url(#paint69_linear_175_198)" fill-opacity="0.6"/>
<path d="M541.965 992.013C543.46 992.013 544.592 992.643 545.361 993.904C546.144 995.151 546.535 996.966 546.535 999.349C546.535 1001.73 546.144 1003.55 545.361 1004.81C544.592 1006.08 543.46 1006.71 541.965 1006.71C540.484 1006.71 539.352 1006.08 538.569 1004.81C537.787 1003.55 537.395 1001.73 537.395 999.349C537.395 996.98 537.787 995.165 538.569 993.904C539.352 992.643 540.484 992.013 541.965 992.013ZM538.884 999.349C538.884 1001.04 539.037 1002.36 539.345 1003.32L543.998 994.112C543.509 993.461 542.832 993.135 541.965 993.135C541.001 993.135 540.246 993.648 539.701 994.673C539.156 995.684 538.884 997.243 538.884 999.349ZM541.965 1005.56C542.943 1005.56 543.705 1005.06 544.25 1004.05C544.795 1003.02 545.068 1001.45 545.068 999.349C545.068 997.562 544.893 996.176 544.543 995.192L539.89 1004.48C540.393 1005.2 541.085 1005.56 541.965 1005.56Z" fill="url(#paint70_linear_175_198)" fill-opacity="0.6"/>
<path d="M543.223 1029.15H546.304V1030.25H538.318V1029.15H541.881V1017.47L538.485 1019.48L537.898 1018.55L542.091 1015.97H543.223V1029.15Z" fill="url(#paint71_linear_175_198)" fill-opacity="0.6"/>
<path d="M543.223 1052.9H546.304V1054H538.318V1052.9H541.881V1041.22L538.485 1043.23L537.898 1042.3L542.091 1039.72H543.223V1052.9Z" fill="url(#paint72_linear_175_198)" fill-opacity="0.6"/>
<path d="M483.57 778.253C485.065 778.253 486.197 778.884 486.966 780.144C487.748 781.391 488.14 783.206 488.14 785.589C488.14 787.972 487.748 789.794 486.966 791.055C486.197 792.316 485.065 792.946 483.57 792.946C482.088 792.946 480.956 792.316 480.174 791.055C479.391 789.794 479 787.972 479 785.589C479 783.22 479.391 781.405 480.174 780.144C480.956 778.884 482.088 778.253 483.57 778.253ZM480.488 785.589C480.488 787.28 480.642 788.603 480.95 789.559L485.603 780.352C485.114 779.701 484.436 779.375 483.57 779.375C482.606 779.375 481.851 779.888 481.306 780.913C480.761 781.925 480.488 783.483 480.488 785.589ZM483.57 791.803C484.548 791.803 485.31 791.297 485.855 790.286C486.4 789.261 486.672 787.695 486.672 785.589C486.672 783.802 486.498 782.417 486.148 781.433L481.495 790.722C481.998 791.443 482.689 791.803 483.57 791.803Z" fill="url(#paint73_linear_175_198)" fill-opacity="0.6"/>
<path d="M483.57 802.004C485.065 802.004 486.197 802.635 486.966 803.895C487.748 805.142 488.14 806.957 488.14 809.34C488.14 811.723 487.748 813.545 486.966 814.806C486.197 816.067 485.065 816.697 483.57 816.697C482.088 816.697 480.956 816.067 480.174 814.806C479.391 813.545 479 811.723 479 809.34C479 806.971 479.391 805.156 480.174 803.895C480.956 802.635 482.088 802.004 483.57 802.004ZM480.488 809.34C480.488 811.031 480.642 812.354 480.95 813.31L485.603 804.103C485.114 803.452 484.436 803.126 483.57 803.126C482.606 803.126 481.851 803.639 481.306 804.664C480.761 805.676 480.488 807.234 480.488 809.34ZM483.57 815.554C484.548 815.554 485.31 815.049 485.855 814.037C486.4 813.012 486.672 811.446 486.672 809.34C486.672 807.553 486.498 806.168 486.148 805.184L481.495 814.474C481.998 815.194 482.689 815.554 483.57 815.554Z" fill="url(#paint74_linear_175_198)" fill-opacity="0.6"/>
<path d="M484.828 839.139H487.909V840.24H479.922V839.139H483.486V827.459L480.09 829.475L479.503 828.54L483.696 825.963H484.828V839.139Z" fill="url(#paint75_linear_175_198)" fill-opacity="0.6"/>
<path d="M483.57 849.506C485.065 849.506 486.197 850.137 486.966 851.398C487.748 852.644 488.14 854.459 488.14 856.842C488.14 859.225 487.748 861.047 486.966 862.308C486.197 863.569 485.065 864.199 483.57 864.199C482.088 864.199 480.956 863.569 480.174 862.308C479.391 861.047 479 859.225 479 856.842C479 854.473 479.391 852.658 480.174 851.398C480.956 850.137 482.088 849.506 483.57 849.506ZM480.488 856.842C480.488 858.533 480.642 859.856 480.95 860.812L485.603 851.605C485.114 850.954 484.436 850.629 483.57 850.629C482.606 850.629 481.851 851.141 481.306 852.166C480.761 853.178 480.488 854.737 480.488 856.842ZM483.57 863.056C484.548 863.056 485.31 862.551 485.855 861.539C486.4 860.514 486.672 858.948 486.672 856.842C486.672 855.055 486.498 853.67 486.148 852.686L481.495 861.976C481.998 862.696 482.689 863.056 483.57 863.056Z" fill="url(#paint76_linear_175_198)" fill-opacity="0.6"/>
<path d="M484.828 886.641H487.909V887.743H479.922V886.641H483.486V874.962L480.09 876.977L479.503 876.042L483.696 873.465H484.828V886.641Z" fill="url(#paint77_linear_175_198)" fill-opacity="0.6"/>
<path d="M484.828 910.392H487.909V911.494H479.922V910.392H483.486V898.713L480.09 900.728L479.503 899.793L483.696 897.216H484.828V910.392Z" fill="url(#paint78_linear_175_198)" fill-opacity="0.6"/>
<path d="M523.758 744.135H526.839V745.236H518.853V744.135H522.416V732.455L519.02 734.471L518.433 733.536L522.626 730.959H523.758V744.135Z" fill="url(#paint79_linear_175_198)" fill-opacity="0.6"/>
<path d="M522.5 754.502C523.995 754.502 525.127 755.133 525.896 756.393C526.679 757.64 527.07 759.455 527.07 761.838C527.07 764.221 526.679 766.043 525.896 767.304C525.127 768.565 523.995 769.195 522.5 769.195C521.019 769.195 519.887 768.565 519.104 767.304C518.321 766.043 517.93 764.221 517.93 761.838C517.93 759.469 518.321 757.654 519.104 756.393C519.887 755.133 521.019 754.502 522.5 754.502ZM519.419 761.838C519.419 763.529 519.572 764.852 519.88 765.808L524.533 756.601C524.044 755.95 523.366 755.624 522.5 755.624C521.536 755.624 520.781 756.137 520.236 757.162C519.691 758.174 519.419 759.732 519.419 761.838ZM522.5 768.052C523.478 768.052 524.24 767.546 524.785 766.535C525.33 765.51 525.602 763.944 525.602 761.838C525.602 760.051 525.428 758.665 525.078 757.682L520.425 766.971C520.928 767.692 521.62 768.052 522.5 768.052Z" fill="url(#paint80_linear_175_198)" fill-opacity="0.6"/>
<path d="M523.758 791.637H526.839V792.738H518.853V791.637H522.416V779.957L519.02 781.973L518.433 781.038L522.626 778.461H523.758V791.637Z" fill="url(#paint81_linear_175_198)" fill-opacity="0.6"/>
<path d="M523.758 815.388H526.839V816.489H518.853V815.388H522.416V803.708L519.02 805.724L518.433 804.789L522.626 802.212H523.758V815.388Z" fill="url(#paint82_linear_175_198)" fill-opacity="0.6"/>
<path d="M522.5 825.755C523.995 825.755 525.127 826.386 525.896 827.646C526.679 828.893 527.07 830.708 527.07 833.091C527.07 835.474 526.679 837.296 525.896 838.557C525.127 839.818 523.995 840.448 522.5 840.448C521.019 840.448 519.887 839.818 519.104 838.557C518.321 837.296 517.93 835.474 517.93 833.091C517.93 830.722 518.321 828.907 519.104 827.646C519.887 826.386 521.019 825.755 522.5 825.755ZM519.419 833.091C519.419 834.782 519.572 836.105 519.88 837.061L524.533 827.854C524.044 827.203 523.366 826.878 522.5 826.878C521.536 826.878 520.781 827.39 520.236 828.415C519.691 829.427 519.419 830.985 519.419 833.091ZM522.5 839.305C523.478 839.305 524.24 838.8 524.785 837.788C525.33 836.763 525.602 835.197 525.602 833.091C525.602 831.304 525.428 829.919 525.078 828.935L520.425 838.225C520.928 838.945 521.62 839.305 522.5 839.305Z" fill="url(#paint83_linear_175_198)" fill-opacity="0.6"/>
<path d="M523.758 862.89H526.839V863.992H518.853V862.89H522.416V851.21L519.02 853.226L518.433 852.291L522.626 849.714H523.758V862.89Z" fill="url(#paint84_linear_175_198)" fill-opacity="0.6"/>
<path d="M523.758 886.641H526.839V887.743H518.853V886.641H522.416V874.962L519.02 876.977L518.433 876.042L522.626 873.465H523.758V886.641Z" fill="url(#paint85_linear_175_198)" fill-opacity="0.6"/>
<path d="M522.5 897.008C523.995 897.008 525.127 897.639 525.896 898.9C526.679 900.147 527.07 901.962 527.07 904.345C527.07 906.728 526.679 908.549 525.896 909.81C525.127 911.071 523.995 911.701 522.5 911.701C521.019 911.701 519.887 911.071 519.104 909.81C518.321 908.549 517.93 906.728 517.93 904.345C517.93 901.975 518.321 900.16 519.104 898.9C519.887 897.639 521.019 897.008 522.5 897.008ZM519.419 904.345C519.419 906.035 519.572 907.358 519.88 908.314L524.533 899.107C524.044 898.456 523.366 898.131 522.5 898.131C521.536 898.131 520.781 898.643 520.236 899.669C519.691 900.68 519.419 902.239 519.419 904.345ZM522.5 910.558C523.478 910.558 524.24 910.053 524.785 909.041C525.33 908.016 525.602 906.451 525.602 904.345C525.602 902.557 525.428 901.172 525.078 900.188L520.425 909.478C520.928 910.198 521.62 910.558 522.5 910.558Z" fill="url(#paint86_linear_175_198)" fill-opacity="0.6"/>
<path d="M523.758 934.143H526.839V935.245H518.853V934.143H522.416V922.464L519.02 924.48L518.433 923.544L522.626 920.967H523.758V934.143Z" fill="url(#paint87_linear_175_198)" fill-opacity="0.6"/>
<path d="M522.5 944.511C523.995 944.511 525.127 945.141 525.896 946.402C526.679 947.649 527.07 949.464 527.07 951.847C527.07 954.23 526.679 956.052 525.896 957.312C525.127 958.573 523.995 959.204 522.5 959.204C521.019 959.204 519.887 958.573 519.104 957.312C518.321 956.052 517.93 954.23 517.93 951.847C517.93 949.478 518.321 947.663 519.104 946.402C519.887 945.141 521.019 944.511 522.5 944.511ZM519.419 951.847C519.419 953.537 519.572 954.86 519.88 955.816L524.533 946.61C524.044 945.958 523.366 945.633 522.5 945.633C521.536 945.633 520.781 946.145 520.236 947.171C519.691 948.182 519.419 949.741 519.419 951.847ZM522.5 958.061C523.478 958.061 524.24 957.555 524.785 956.543C525.33 955.518 525.602 953.953 525.602 951.847C525.602 950.059 525.428 948.674 525.078 947.69L520.425 956.98C520.928 957.7 521.62 958.061 522.5 958.061Z" fill="url(#paint88_linear_175_198)" fill-opacity="0.6"/>
<path d="M561.43 730.751C562.926 730.751 564.057 731.381 564.826 732.642C565.609 733.889 566 735.704 566 738.087C566 740.47 565.609 742.292 564.826 743.553C564.057 744.814 562.926 745.444 561.43 745.444C559.949 745.444 558.817 744.814 558.034 743.553C557.252 742.292 556.86 740.47 556.86 738.087C556.86 735.718 557.252 733.903 558.034 732.642C558.817 731.381 559.949 730.751 561.43 730.751ZM558.349 738.087C558.349 739.777 558.502 741.101 558.81 742.057L563.464 732.85C562.974 732.199 562.297 731.873 561.43 731.873C560.466 731.873 559.711 732.386 559.166 733.411C558.621 734.423 558.349 735.981 558.349 738.087ZM561.43 744.301C562.408 744.301 563.17 743.795 563.715 742.784C564.26 741.759 564.533 740.193 564.533 738.087C564.533 736.3 564.358 734.914 564.009 733.931L559.355 743.22C559.858 743.941 560.55 744.301 561.43 744.301Z" fill="url(#paint89_linear_175_198)" fill-opacity="0.6"/>
<path d="M562.688 767.886H565.769V768.987H557.783V767.886H561.346V756.206L557.95 758.222L557.363 757.287L561.556 754.71H562.688V767.886Z" fill="url(#paint90_linear_175_198)" fill-opacity="0.6"/>
<path d="M562.688 791.637H565.769V792.738H557.783V791.637H561.346V779.957L557.95 781.973L557.363 781.038L561.556 778.461H562.688V791.637Z" fill="url(#paint91_linear_175_198)" fill-opacity="0.6"/>
<path d="M561.43 802.004C562.926 802.004 564.057 802.635 564.826 803.895C565.609 805.142 566 806.957 566 809.34C566 811.723 565.609 813.545 564.826 814.806C564.057 816.067 562.926 816.697 561.43 816.697C559.949 816.697 558.817 816.067 558.034 814.806C557.252 813.545 556.86 811.723 556.86 809.34C556.86 806.971 557.252 805.156 558.034 803.895C558.817 802.635 559.949 802.004 561.43 802.004ZM558.349 809.34C558.349 811.031 558.502 812.354 558.81 813.31L563.464 804.103C562.974 803.452 562.297 803.126 561.43 803.126C560.466 803.126 559.711 803.639 559.166 804.664C558.621 805.676 558.349 807.234 558.349 809.34ZM561.43 815.554C562.408 815.554 563.17 815.049 563.715 814.037C564.26 813.012 564.533 811.446 564.533 809.34C564.533 807.553 564.358 806.168 564.009 805.184L559.355 814.474C559.858 815.194 560.55 815.554 561.43 815.554Z" fill="url(#paint92_linear_175_198)" fill-opacity="0.6"/>
<path d="M561.43 825.755C562.926 825.755 564.057 826.386 564.826 827.646C565.609 828.893 566 830.708 566 833.091C566 835.474 565.609 837.296 564.826 838.557C564.057 839.818 562.926 840.448 561.43 840.448C559.949 840.448 558.817 839.818 558.034 838.557C557.252 837.296 556.86 835.474 556.86 833.091C556.86 830.722 557.252 828.907 558.034 827.646C558.817 826.386 559.949 825.755 561.43 825.755ZM558.349 833.091C558.349 834.782 558.502 836.105 558.81 837.061L563.464 827.854C562.974 827.203 562.297 826.878 561.43 826.878C560.466 826.878 559.711 827.39 559.166 828.415C558.621 829.427 558.349 830.985 558.349 833.091ZM561.43 839.305C562.408 839.305 563.17 838.8 563.715 837.788C564.26 836.763 564.533 835.197 564.533 833.091C564.533 831.304 564.358 829.919 564.009 828.935L559.355 838.225C559.858 838.945 560.55 839.305 561.43 839.305Z" fill="url(#paint93_linear_175_198)" fill-opacity="0.6"/>
<defs>
<filter id="filter0_f_175_198" x="-548.19" y="-726.19" width="2141.38" height="1500.38" filterUnits="userSpaceOnUse" color-interpolation-filters="sRGB">
<feFlood flood-opacity="0" result="BackgroundImageFix"/>
<feBlend mode="normal" in="SourceGraphic" in2="BackgroundImageFix" result="shape"/>
<feGaussianBlur stdDeviation="200.095" result="effect1_foregroundBlur_175_198"/>
</filter>
<linearGradient id="paint0_linear_175_198" x1="522.5" y1="374" x2="522.5" y2="672.818" gradientUnits="userSpaceOnUse">
<stop stop-color="#F7DD43"/>
<stop offset="1" stop-color="#F7DD43" stop-opacity="0"/>
</linearGradient>
<linearGradient id="paint1_linear_175_198" x1="522.5" y1="374" x2="522.5" y2="672.818" gradientUnits="userSpaceOnUse">
<stop stop-color="#F7DD43"/>
<stop offset="1" stop-color="#F7DD43" stop-opacity="0"/>
</linearGradient>
<linearGradient id="paint2_linear_175_198" x1="522.5" y1="374" x2="522.5" y2="672.818" gradientUnits="userSpaceOnUse">
<stop stop-color="#F7DD43"/>
<stop offset="1" stop-color="#F7DD43" stop-opacity="0"/>
</linearGradient>
<linearGradient id="paint3_linear_175_198" x1="522.5" y1="374" x2="522.5" y2="672.818" gradientUnits="userSpaceOnUse">
<stop stop-color="#F7DD43"/>
<stop offset="1" stop-color="#F7DD43" stop-opacity="0"/>
</linearGradient>
<linearGradient id="paint4_linear_175_198" x1="522.5" y1="374" x2="522.5" y2="672.818" gradientUnits="userSpaceOnUse">
<stop stop-color="#F7DD43"/>
<stop offset="1" stop-color="#F7DD43" stop-opacity="0"/>
</linearGradient>
<linearGradient id="paint5_linear_175_198" x1="522.5" y1="374" x2="522.5" y2="672.818" gradientUnits="userSpaceOnUse">
<stop stop-color="#F7DD43"/>
<stop offset="1" stop-color="#F7DD43" stop-opacity="0"/>
</linearGradient>
<linearGradient id="paint6_linear_175_198" x1="522.5" y1="374" x2="522.5" y2="672.818" gradientUnits="userSpaceOnUse">
<stop stop-color="#F7DD43"/>
<stop offset="1" stop-color="#F7DD43" stop-opacity="0"/>
</linearGradient>
<linearGradient id="paint7_linear_175_198" x1="522.5" y1="374" x2="522.5" y2="672.818" gradientUnits="userSpaceOnUse">
<stop stop-color="#F7DD43"/>
<stop offset="1" stop-color="#F7DD43" stop-opacity="0"/>
</linearGradient>
<linearGradient id="paint8_linear_175_198" x1="522.5" y1="374" x2="522.5" y2="672.818" gradientUnits="userSpaceOnUse">
<stop stop-color="#F7DD43"/>
<stop offset="1" stop-color="#F7DD43" stop-opacity="0"/>
</linearGradient>
<linearGradient id="paint9_linear_175_198" x1="522.5" y1="374" x2="522.5" y2="672.818" gradientUnits="userSpaceOnUse">
<stop stop-color="#F7DD43"/>
<stop offset="1" stop-color="#F7DD43" stop-opacity="0"/>
</linearGradient>
<linearGradient id="paint10_linear_175_198" x1="522.5" y1="374" x2="522.5" y2="672.818" gradientUnits="userSpaceOnUse">
<stop stop-color="#F7DD43"/>
<stop offset="1" stop-color="#F7DD43" stop-opacity="0"/>
</linearGradient>
<linearGradient id="paint11_linear_175_198" x1="522.5" y1="374" x2="522.5" y2="672.818" gradientUnits="userSpaceOnUse">
<stop stop-color="#F7DD43"/>
<stop offset="1" stop-color="#F7DD43" stop-opacity="0"/>
</linearGradient>
<linearGradient id="paint12_linear_175_198" x1="522.5" y1="374" x2="522.5" y2="672.818" gradientUnits="userSpaceOnUse">
<stop stop-color="#F7DD43"/>
<stop offset="1" stop-color="#F7DD43" stop-opacity="0"/>
</linearGradient>
<linearGradient id="paint13_linear_175_198" x1="522.5" y1="374" x2="522.5" y2="672.818" gradientUnits="userSpaceOnUse">
<stop stop-color="#F7DD43"/>
<stop offset="1" stop-color="#F7DD43" stop-opacity="0"/>
</linearGradient>
<linearGradient id="paint14_linear_175_198" x1="522.5" y1="374" x2="522.5" y2="672.818" gradientUnits="userSpaceOnUse">
<stop stop-color="#F7DD43"/>
<stop offset="1" stop-color="#F7DD43" stop-opacity="0"/>
</linearGradient>
<linearGradient id="paint15_linear_175_198" x1="522.5" y1="374" x2="522.5" y2="672.818" gradientUnits="userSpaceOnUse">
<stop stop-color="#F7DD43"/>
<stop offset="1" stop-color="#F7DD43" stop-opacity="0"/>
</linearGradient>
<linearGradient id="paint16_linear_175_198" x1="522.5" y1="374" x2="522.5" y2="672.818" gradientUnits="userSpaceOnUse">
<stop stop-color="#F7DD43"/>
<stop offset="1" stop-color="#F7DD43" stop-opacity="0"/>
</linearGradient>
<linearGradient id="paint17_linear_175_198" x1="522.5" y1="374" x2="522.5" y2="672.818" gradientUnits="userSpaceOnUse">
<stop stop-color="#F7DD43"/>
<stop offset="1" stop-color="#F7DD43" stop-opacity="0"/>
</linearGradient>
<linearGradient id="paint18_linear_175_198" x1="522.5" y1="374" x2="522.5" y2="672.818" gradientUnits="userSpaceOnUse">
<stop stop-color="#F7DD43"/>
<stop offset="1" stop-color="#F7DD43" stop-opacity="0"/>
</linearGradient>
<linearGradient id="paint19_linear_175_198" x1="522.5" y1="374" x2="522.5" y2="672.818" gradientUnits="userSpaceOnUse">
<stop stop-color="#F7DD43"/>
<stop offset="1" stop-color="#F7DD43" stop-opacity="0"/>
</linearGradient>
<linearGradient id="paint20_linear_175_198" x1="522.5" y1="374" x2="522.5" y2="672.818" gradientUnits="userSpaceOnUse">
<stop stop-color="#F7DD43"/>
<stop offset="1" stop-color="#F7DD43" stop-opacity="0"/>
</linearGradient>
<linearGradient id="paint21_linear_175_198" x1="522.5" y1="374" x2="522.5" y2="672.818" gradientUnits="userSpaceOnUse">
<stop stop-color="#F7DD43"/>
<stop offset="1" stop-color="#F7DD43" stop-opacity="0"/>
</linearGradient>
<linearGradient id="paint22_linear_175_198" x1="522.5" y1="374" x2="522.5" y2="672.818" gradientUnits="userSpaceOnUse">
<stop stop-color="#F7DD43"/>
<stop offset="1" stop-color="#F7DD43" stop-opacity="0"/>
</linearGradient>
<linearGradient id="paint23_linear_175_198" x1="522.5" y1="374" x2="522.5" y2="672.818" gradientUnits="userSpaceOnUse">
<stop stop-color="#F7DD43"/>
<stop offset="1" stop-color="#F7DD43" stop-opacity="0"/>
</linearGradient>
<linearGradient id="paint24_linear_175_198" x1="522.5" y1="374" x2="522.5" y2="672.818" gradientUnits="userSpaceOnUse">
<stop stop-color="#F7DD43"/>
<stop offset="1" stop-color="#F7DD43" stop-opacity="0"/>
</linearGradient>
<linearGradient id="paint25_linear_175_198" x1="522.5" y1="374" x2="522.5" y2="672.818" gradientUnits="userSpaceOnUse">
<stop stop-color="#F7DD43"/>
<stop offset="1" stop-color="#F7DD43" stop-opacity="0"/>
</linearGradient>
<linearGradient id="paint26_linear_175_198" x1="522.5" y1="374" x2="522.5" y2="672.818" gradientUnits="userSpaceOnUse">
<stop stop-color="#F7DD43"/>
<stop offset="1" stop-color="#F7DD43" stop-opacity="0"/>
</linearGradient>
<linearGradient id="paint27_linear_175_198" x1="522.5" y1="374" x2="522.5" y2="672.818" gradientUnits="userSpaceOnUse">
<stop stop-color="#F7DD43"/>
<stop offset="1" stop-color="#F7DD43" stop-opacity="0"/>
</linearGradient>
<linearGradient id="paint28_linear_175_198" x1="522.5" y1="374" x2="522.5" y2="672.818" gradientUnits="userSpaceOnUse">
<stop stop-color="#F7DD43"/>
<stop offset="1" stop-color="#F7DD43" stop-opacity="0"/>
</linearGradient>
<linearGradient id="paint29_linear_175_198" x1="522.5" y1="374" x2="522.5" y2="672.818" gradientUnits="userSpaceOnUse">
<stop stop-color="#F7DD43"/>
<stop offset="1" stop-color="#F7DD43" stop-opacity="0"/>
</linearGradient>
<linearGradient id="paint30_linear_175_198" x1="522.5" y1="374" x2="522.5" y2="672.818" gradientUnits="userSpaceOnUse">
<stop stop-color="#F7DD43"/>
<stop offset="1" stop-color="#F7DD43" stop-opacity="0"/>
</linearGradient>
<linearGradient id="paint31_linear_175_198" x1="522.5" y1="374" x2="522.5" y2="672.818" gradientUnits="userSpaceOnUse">
<stop stop-color="#F7DD43"/>
<stop offset="1" stop-color="#F7DD43" stop-opacity="0"/>
</linearGradient>
<linearGradient id="paint32_linear_175_198" x1="522.5" y1="374" x2="522.5" y2="672.818" gradientUnits="userSpaceOnUse">
<stop stop-color="#F7DD43"/>
<stop offset="1" stop-color="#F7DD43" stop-opacity="0"/>
</linearGradient>
<linearGradient id="paint33_linear_175_198" x1="522.5" y1="374" x2="522.5" y2="672.818" gradientUnits="userSpaceOnUse">
<stop stop-color="#F7DD43"/>
<stop offset="1" stop-color="#F7DD43" stop-opacity="0"/>
</linearGradient>
<linearGradient id="paint34_linear_175_198" x1="522.5" y1="374" x2="522.5" y2="672.818" gradientUnits="userSpaceOnUse">
<stop stop-color="#F7DD43"/>
<stop offset="1" stop-color="#F7DD43" stop-opacity="0"/>
</linearGradient>
<linearGradient id="paint35_linear_175_198" x1="522.5" y1="374" x2="522.5" y2="672.818" gradientUnits="userSpaceOnUse">
<stop stop-color="#F7DD43"/>
<stop offset="1" stop-color="#F7DD43" stop-opacity="0"/>
</linearGradient>
<linearGradient id="paint36_linear_175_198" x1="522.5" y1="374" x2="522.5" y2="672.818" gradientUnits="userSpaceOnUse">
<stop stop-color="#F7DD43"/>
<stop offset="1" stop-color="#F7DD43" stop-opacity="0"/>
</linearGradient>
<linearGradient id="paint37_linear_175_198" x1="522.5" y1="374" x2="522.5" y2="672.818" gradientUnits="userSpaceOnUse">
<stop stop-color="#F7DD43"/>
<stop offset="1" stop-color="#F7DD43" stop-opacity="0"/>
</linearGradient>
<linearGradient id="paint38_linear_175_198" x1="522.5" y1="374" x2="522.5" y2="672.818" gradientUnits="userSpaceOnUse">
<stop stop-color="#F7DD43"/>
<stop offset="1" stop-color="#F7DD43" stop-opacity="0"/>
</linearGradient>
<linearGradient id="paint39_linear_175_198" x1="522.5" y1="374" x2="522.5" y2="672.818" gradientUnits="userSpaceOnUse">
<stop stop-color="#F7DD43"/>
<stop offset="1" stop-color="#F7DD43" stop-opacity="0"/>
</linearGradient>
<linearGradient id="paint40_linear_175_198" x1="522.5" y1="374" x2="522.5" y2="672.818" gradientUnits="userSpaceOnUse">
<stop stop-color="#F7DD43"/>
<stop offset="1" stop-color="#F7DD43" stop-opacity="0"/>
</linearGradient>
<linearGradient id="paint41_linear_175_198" x1="522.5" y1="374" x2="522.5" y2="672.818" gradientUnits="userSpaceOnUse">
<stop stop-color="#F7DD43"/>
<stop offset="1" stop-color="#F7DD43" stop-opacity="0"/>
</linearGradient>
<linearGradient id="paint42_linear_175_198" x1="522.5" y1="374" x2="522.5" y2="672.818" gradientUnits="userSpaceOnUse">
<stop stop-color="#F7DD43"/>
<stop offset="1" stop-color="#F7DD43" stop-opacity="0"/>
</linearGradient>
<linearGradient id="paint43_linear_175_198" x1="522.5" y1="374" x2="522.5" y2="672.818" gradientUnits="userSpaceOnUse">
<stop stop-color="#F7DD43"/>
<stop offset="1" stop-color="#F7DD43" stop-opacity="0"/>
</linearGradient>
<linearGradient id="paint44_linear_175_198" x1="522.5" y1="374" x2="522.5" y2="672.818" gradientUnits="userSpaceOnUse">
<stop stop-color="#F7DD43"/>
<stop offset="1" stop-color="#F7DD43" stop-opacity="0"/>
</linearGradient>
<linearGradient id="paint45_linear_175_198" x1="522.5" y1="374" x2="522.5" y2="672.818" gradientUnits="userSpaceOnUse">
<stop stop-color="#F7DD43"/>
<stop offset="1" stop-color="#F7DD43" stop-opacity="0"/>
</linearGradient>
<linearGradient id="paint46_linear_175_198" x1="522.5" y1="374" x2="522.5" y2="672.818" gradientUnits="userSpaceOnUse">
<stop stop-color="#F7DD43"/>
<stop offset="1" stop-color="#F7DD43" stop-opacity="0"/>
</linearGradient>
<linearGradient id="paint47_linear_175_198" x1="522.5" y1="707" x2="522.5" y2="1018.38" gradientUnits="userSpaceOnUse">
<stop stop-color="#F7DD43"/>
<stop offset="1" stop-color="#F7DD43" stop-opacity="0"/>
</linearGradient>
<linearGradient id="paint48_linear_175_198" x1="522.5" y1="707" x2="522.5" y2="1018.38" gradientUnits="userSpaceOnUse">
<stop stop-color="#F7DD43"/>
<stop offset="1" stop-color="#F7DD43" stop-opacity="0"/>
</linearGradient>
<linearGradient id="paint49_linear_175_198" x1="522.5" y1="707" x2="522.5" y2="1018.38" gradientUnits="userSpaceOnUse">
<stop stop-color="#F7DD43"/>
<stop offset="1" stop-color="#F7DD43" stop-opacity="0"/>
</linearGradient>
<linearGradient id="paint50_linear_175_198" x1="522.5" y1="707" x2="522.5" y2="1018.38" gradientUnits="userSpaceOnUse">
<stop stop-color="#F7DD43"/>
<stop offset="1" stop-color="#F7DD43" stop-opacity="0"/>
</linearGradient>
<linearGradient id="paint51_linear_175_198" x1="522.5" y1="707" x2="522.5" y2="1018.38" gradientUnits="userSpaceOnUse">
<stop stop-color="#F7DD43"/>
<stop offset="1" stop-color="#F7DD43" stop-opacity="0"/>
</linearGradient>
<linearGradient id="paint52_linear_175_198" x1="522.5" y1="707" x2="522.5" y2="1018.38" gradientUnits="userSpaceOnUse">
<stop stop-color="#F7DD43"/>
<stop offset="1" stop-color="#F7DD43" stop-opacity="0"/>
</linearGradient>
<linearGradient id="paint53_linear_175_198" x1="522.5" y1="707" x2="522.5" y2="1018.38" gradientUnits="userSpaceOnUse">
<stop stop-color="#F7DD43"/>
<stop offset="1" stop-color="#F7DD43" stop-opacity="0"/>
</linearGradient>
<linearGradient id="paint54_linear_175_198" x1="522.5" y1="707" x2="522.5" y2="1018.38" gradientUnits="userSpaceOnUse">
<stop stop-color="#F7DD43"/>
<stop offset="1" stop-color="#F7DD43" stop-opacity="0"/>
</linearGradient>
<linearGradient id="paint55_linear_175_198" x1="522.5" y1="707" x2="522.5" y2="1018.38" gradientUnits="userSpaceOnUse">
<stop stop-color="#F7DD43"/>
<stop offset="1" stop-color="#F7DD43" stop-opacity="0"/>
</linearGradient>
<linearGradient id="paint56_linear_175_198" x1="522.5" y1="707" x2="522.5" y2="1018.38" gradientUnits="userSpaceOnUse">
<stop stop-color="#F7DD43"/>
<stop offset="1" stop-color="#F7DD43" stop-opacity="0"/>
</linearGradient>
<linearGradient id="paint57_linear_175_198" x1="522.5" y1="707" x2="522.5" y2="1018.38" gradientUnits="userSpaceOnUse">
<stop stop-color="#F7DD43"/>
<stop offset="1" stop-color="#F7DD43" stop-opacity="0"/>
</linearGradient>
<linearGradient id="paint58_linear_175_198" x1="522.5" y1="707" x2="522.5" y2="1018.38" gradientUnits="userSpaceOnUse">
<stop stop-color="#F7DD43"/>
<stop offset="1" stop-color="#F7DD43" stop-opacity="0"/>
</linearGradient>
<linearGradient id="paint59_linear_175_198" x1="522.5" y1="707" x2="522.5" y2="1018.38" gradientUnits="userSpaceOnUse">
<stop stop-color="#F7DD43"/>
<stop offset="1" stop-color="#F7DD43" stop-opacity="0"/>
</linearGradient>
<linearGradient id="paint60_linear_175_198" x1="522.5" y1="707" x2="522.5" y2="1018.38" gradientUnits="userSpaceOnUse">
<stop stop-color="#F7DD43"/>
<stop offset="1" stop-color="#F7DD43" stop-opacity="0"/>
</linearGradient>
<linearGradient id="paint61_linear_175_198" x1="522.5" y1="707" x2="522.5" y2="1018.38" gradientUnits="userSpaceOnUse">
<stop stop-color="#F7DD43"/>
<stop offset="1" stop-color="#F7DD43" stop-opacity="0"/>
</linearGradient>
<linearGradient id="paint62_linear_175_198" x1="522.5" y1="707" x2="522.5" y2="1018.38" gradientUnits="userSpaceOnUse">
<stop stop-color="#F7DD43"/>
<stop offset="1" stop-color="#F7DD43" stop-opacity="0"/>
</linearGradient>
<linearGradient id="paint63_linear_175_198" x1="522.5" y1="707" x2="522.5" y2="1018.38" gradientUnits="userSpaceOnUse">
<stop stop-color="#F7DD43"/>
<stop offset="1" stop-color="#F7DD43" stop-opacity="0"/>
</linearGradient>
<linearGradient id="paint64_linear_175_198" x1="522.5" y1="707" x2="522.5" y2="1018.38" gradientUnits="userSpaceOnUse">
<stop stop-color="#F7DD43"/>
<stop offset="1" stop-color="#F7DD43" stop-opacity="0"/>
</linearGradient>
<linearGradient id="paint65_linear_175_198" x1="522.5" y1="707" x2="522.5" y2="1018.38" gradientUnits="userSpaceOnUse">
<stop stop-color="#F7DD43"/>
<stop offset="1" stop-color="#F7DD43" stop-opacity="0"/>
</linearGradient>
<linearGradient id="paint66_linear_175_198" x1="522.5" y1="707" x2="522.5" y2="1018.38" gradientUnits="userSpaceOnUse">
<stop stop-color="#F7DD43"/>
<stop offset="1" stop-color="#F7DD43" stop-opacity="0"/>
</linearGradient>
<linearGradient id="paint67_linear_175_198" x1="522.5" y1="707" x2="522.5" y2="1018.38" gradientUnits="userSpaceOnUse">
<stop stop-color="#F7DD43"/>
<stop offset="1" stop-color="#F7DD43" stop-opacity="0"/>
</linearGradient>
<linearGradient id="paint68_linear_175_198" x1="522.5" y1="707" x2="522.5" y2="1018.38" gradientUnits="userSpaceOnUse">
<stop stop-color="#F7DD43"/>
<stop offset="1" stop-color="#F7DD43" stop-opacity="0"/>
</linearGradient>
<linearGradient id="paint69_linear_175_198" x1="522.5" y1="707" x2="522.5" y2="1018.38" gradientUnits="userSpaceOnUse">
<stop stop-color="#F7DD43"/>
<stop offset="1" stop-color="#F7DD43" stop-opacity="0"/>
</linearGradient>
<linearGradient id="paint70_linear_175_198" x1="522.5" y1="707" x2="522.5" y2="1018.38" gradientUnits="userSpaceOnUse">
<stop stop-color="#F7DD43"/>
<stop offset="1" stop-color="#F7DD43" stop-opacity="0"/>
</linearGradient>
<linearGradient id="paint71_linear_175_198" x1="522.5" y1="707" x2="522.5" y2="1018.38" gradientUnits="userSpaceOnUse">
<stop stop-color="#F7DD43"/>
<stop offset="1" stop-color="#F7DD43" stop-opacity="0"/>
</linearGradient>
<linearGradient id="paint72_linear_175_198" x1="522.5" y1="707" x2="522.5" y2="1018.38" gradientUnits="userSpaceOnUse">
<stop stop-color="#F7DD43"/>
<stop offset="1" stop-color="#F7DD43" stop-opacity="0"/>
</linearGradient>
<linearGradient id="paint73_linear_175_198" x1="522.5" y1="707" x2="522.5" y2="1018.38" gradientUnits="userSpaceOnUse">
<stop stop-color="#F7DD43"/>
<stop offset="1" stop-color="#F7DD43" stop-opacity="0"/>
</linearGradient>
<linearGradient id="paint74_linear_175_198" x1="522.5" y1="707" x2="522.5" y2="1018.38" gradientUnits="userSpaceOnUse">
<stop stop-color="#F7DD43"/>
<stop offset="1" stop-color="#F7DD43" stop-opacity="0"/>
</linearGradient>
<linearGradient id="paint75_linear_175_198" x1="522.5" y1="707" x2="522.5" y2="1018.38" gradientUnits="userSpaceOnUse">
<stop stop-color="#F7DD43"/>
<stop offset="1" stop-color="#F7DD43" stop-opacity="0"/>
</linearGradient>
<linearGradient id="paint76_linear_175_198" x1="522.5" y1="707" x2="522.5" y2="1018.38" gradientUnits="userSpaceOnUse">
<stop stop-color="#F7DD43"/>
<stop offset="1" stop-color="#F7DD43" stop-opacity="0"/>
</linearGradient>
<linearGradient id="paint77_linear_175_198" x1="522.5" y1="707" x2="522.5" y2="1018.38" gradientUnits="userSpaceOnUse">
<stop stop-color="#F7DD43"/>
<stop offset="1" stop-color="#F7DD43" stop-opacity="0"/>
</linearGradient>
<linearGradient id="paint78_linear_175_198" x1="522.5" y1="707" x2="522.5" y2="1018.38" gradientUnits="userSpaceOnUse">
<stop stop-color="#F7DD43"/>
<stop offset="1" stop-color="#F7DD43" stop-opacity="0"/>
</linearGradient>
<linearGradient id="paint79_linear_175_198" x1="522.5" y1="707" x2="522.5" y2="1018.38" gradientUnits="userSpaceOnUse">
<stop stop-color="#F7DD43"/>
<stop offset="1" stop-color="#F7DD43" stop-opacity="0"/>
</linearGradient>
<linearGradient id="paint80_linear_175_198" x1="522.5" y1="707" x2="522.5" y2="1018.38" gradientUnits="userSpaceOnUse">
<stop stop-color="#F7DD43"/>
<stop offset="1" stop-color="#F7DD43" stop-opacity="0"/>
</linearGradient>
<linearGradient id="paint81_linear_175_198" x1="522.5" y1="707" x2="522.5" y2="1018.38" gradientUnits="userSpaceOnUse">
<stop stop-color="#F7DD43"/>
<stop offset="1" stop-color="#F7DD43" stop-opacity="0"/>
</linearGradient>
<linearGradient id="paint82_linear_175_198" x1="522.5" y1="707" x2="522.5" y2="1018.38" gradientUnits="userSpaceOnUse">
<stop stop-color="#F7DD43"/>
<stop offset="1" stop-color="#F7DD43" stop-opacity="0"/>
</linearGradient>
<linearGradient id="paint83_linear_175_198" x1="522.5" y1="707" x2="522.5" y2="1018.38" gradientUnits="userSpaceOnUse">
<stop stop-color="#F7DD43"/>
<stop offset="1" stop-color="#F7DD43" stop-opacity="0"/>
</linearGradient>
<linearGradient id="paint84_linear_175_198" x1="522.5" y1="707" x2="522.5" y2="1018.38" gradientUnits="userSpaceOnUse">
<stop stop-color="#F7DD43"/>
<stop offset="1" stop-color="#F7DD43" stop-opacity="0"/>
</linearGradient>
<linearGradient id="paint85_linear_175_198" x1="522.5" y1="707" x2="522.5" y2="1018.38" gradientUnits="userSpaceOnUse">
<stop stop-color="#F7DD43"/>
<stop offset="1" stop-color="#F7DD43" stop-opacity="0"/>
</linearGradient>
<linearGradient id="paint86_linear_175_198" x1="522.5" y1="707" x2="522.5" y2="1018.38" gradientUnits="userSpaceOnUse">
<stop stop-color="#F7DD43"/>
<stop offset="1" stop-color="#F7DD43" stop-opacity="0"/>
</linearGradient>
<linearGradient id="paint87_linear_175_198" x1="522.5" y1="707" x2="522.5" y2="1018.38" gradientUnits="userSpaceOnUse">
<stop stop-color="#F7DD43"/>
<stop offset="1" stop-color="#F7DD43" stop-opacity="0"/>
</linearGradient>
<linearGradient id="paint88_linear_175_198" x1="522.5" y1="707" x2="522.5" y2="1018.38" gradientUnits="userSpaceOnUse">
<stop stop-color="#F7DD43"/>
<stop offset="1" stop-color="#F7DD43" stop-opacity="0"/>
</linearGradient>
<linearGradient id="paint89_linear_175_198" x1="522.5" y1="707" x2="522.5" y2="1018.38" gradientUnits="userSpaceOnUse">
<stop stop-color="#F7DD43"/>
<stop offset="1" stop-color="#F7DD43" stop-opacity="0"/>
</linearGradient>
<linearGradient id="paint90_linear_175_198" x1="522.5" y1="707" x2="522.5" y2="1018.38" gradientUnits="userSpaceOnUse">
<stop stop-color="#F7DD43"/>
<stop offset="1" stop-color="#F7DD43" stop-opacity="0"/>
</linearGradient>
<linearGradient id="paint91_linear_175_198" x1="522.5" y1="707" x2="522.5" y2="1018.38" gradientUnits="userSpaceOnUse">
<stop stop-color="#F7DD43"/>
<stop offset="1" stop-color="#F7DD43" stop-opacity="0"/>
</linearGradient>
<linearGradient id="paint92_linear_175_198" x1="522.5" y1="707" x2="522.5" y2="1018.38" gradientUnits="userSpaceOnUse">
<stop stop-color="#F7DD43"/>
<stop offset="1" stop-color="#F7DD43" stop-opacity="0"/>
</linearGradient>
<linearGradient id="paint93_linear_175_198" x1="522.5" y1="707" x2="522.5" y2="1018.38" gradientUnits="userSpaceOnUse">
<stop stop-color="#F7DD43"/>
<stop offset="1" stop-color="#F7DD43" stop-opacity="0"/>
</linearGradient>
</defs>
</svg>
