<svg width="1024" height="753" viewBox="0 0 1024 753" fill="none" xmlns="http://www.w3.org/2000/svg">
<g opacity="0.2" filter="url(#filter0_f_175_198)">
<ellipse cx="522.5" cy="24" rx="670.5" ry="350" fill="#B3A659"/>
</g>
<path d="M43.0349 260C44.5302 260 45.6622 260.63 46.4308 261.891C47.2134 263.138 47.6047 264.953 47.6047 267.336C47.6047 269.719 47.2134 271.541 46.4308 272.802C45.6622 274.063 44.5302 274.693 43.0349 274.693C41.5536 274.693 40.4216 274.063 39.639 272.802C38.8564 271.541 38.4651 269.719 38.4651 267.336C38.4651 264.967 38.8564 263.152 39.639 261.891C40.4216 260.63 41.5536 260 43.0349 260ZM39.9534 267.336C39.9534 269.026 40.1072 270.35 40.4146 271.306L45.0683 262.099C44.5791 261.448 43.9013 261.122 43.0349 261.122C42.0706 261.122 41.316 261.635 40.771 262.66C40.2259 263.672 39.9534 265.23 39.9534 267.336ZM43.0349 273.55C44.0131 273.55 44.7748 273.044 45.3198 272.033C45.8648 271.008 46.1373 269.442 46.1373 267.336C46.1373 265.549 45.9627 264.163 45.6133 263.18L40.9596 272.469C41.4627 273.19 42.1545 273.55 43.0349 273.55Z" fill="url(#paint0_linear_175_198)" fill-opacity="0.6"/>
<path d="M44.2926 297.135H47.3741V298.236H39.3874V297.135H42.9511V285.455L39.5551 287.471L38.9682 286.536L43.1607 283.959H44.2926V297.135Z" fill="url(#paint1_linear_175_198)" fill-opacity="0.6"/>
<path d="M43.0349 307.502C44.5302 307.502 45.6622 308.133 46.4308 309.393C47.2134 310.64 47.6047 312.455 47.6047 314.838C47.6047 317.221 47.2134 319.043 46.4308 320.304C45.6622 321.565 44.5302 322.195 43.0349 322.195C41.5536 322.195 40.4216 321.565 39.639 320.304C38.8564 319.043 38.4651 317.221 38.4651 314.838C38.4651 312.469 38.8564 310.654 39.639 309.393C40.4216 308.133 41.5536 307.502 43.0349 307.502ZM39.9534 314.838C39.9534 316.529 40.1072 317.852 40.4146 318.808L45.0683 309.601C44.5791 308.95 43.9013 308.624 43.0349 308.624C42.0706 308.624 41.316 309.137 40.771 310.162C40.2259 311.174 39.9534 312.732 39.9534 314.838ZM43.0349 321.052C44.0131 321.052 44.7748 320.546 45.3198 319.535C45.8648 318.51 46.1373 316.944 46.1373 314.838C46.1373 313.051 45.9627 311.665 45.6133 310.682L40.9596 319.971C41.4627 320.692 42.1545 321.052 43.0349 321.052Z" fill="url(#paint2_linear_175_198)" fill-opacity="0.6"/>
<path d="M44.2926 344.637H47.3741V345.738H39.3874V344.637H42.9511V332.957L39.5551 334.973L38.9682 334.038L43.1607 331.461H44.2926V344.637Z" fill="url(#paint3_linear_175_198)" fill-opacity="0.6"/>
<path d="M44.2926 368.388H47.3741V369.489H39.3874V368.388H42.9511V356.708L39.5551 358.724L38.9682 357.789L43.1607 355.212H44.2926V368.388Z" fill="url(#paint4_linear_175_198)" fill-opacity="0.6"/>
<path d="M43.0349 378.755C44.5302 378.755 45.6622 379.386 46.4308 380.646C47.2134 381.893 47.6047 383.708 47.6047 386.091C47.6047 388.474 47.2134 390.296 46.4308 391.557C45.6622 392.818 44.5302 393.448 43.0349 393.448C41.5536 393.448 40.4216 392.818 39.639 391.557C38.8564 390.296 38.4651 388.474 38.4651 386.091C38.4651 383.722 38.8564 381.907 39.639 380.646C40.4216 379.386 41.5536 378.755 43.0349 378.755ZM39.9534 386.091C39.9534 387.782 40.1072 389.105 40.4146 390.061L45.0683 380.854C44.5791 380.203 43.9013 379.878 43.0349 379.878C42.0706 379.878 41.316 380.39 40.771 381.415C40.2259 382.427 39.9534 383.985 39.9534 386.091ZM43.0349 392.305C44.0131 392.305 44.7748 391.8 45.3198 390.788C45.8648 389.763 46.1373 388.197 46.1373 386.091C46.1373 384.304 45.9627 382.919 45.6133 381.935L40.9596 391.225C41.4627 391.945 42.1545 392.305 43.0349 392.305Z" fill="url(#paint5_linear_175_198)" fill-opacity="0.6"/>
<path d="M44.2926 415.89H47.3741V416.992H39.3874V415.89H42.9511V404.21L39.5551 406.226L38.9682 405.291L43.1607 402.714H44.2926V415.89Z" fill="url(#paint6_linear_175_198)" fill-opacity="0.6"/>
<path d="M43.0349 426.257C44.5302 426.257 45.6622 426.888 46.4308 428.149C47.2134 429.396 47.6047 431.211 47.6047 433.594C47.6047 435.977 47.2134 437.798 46.4308 439.059C45.6622 440.32 44.5302 440.95 43.0349 440.95C41.5536 440.95 40.4216 440.32 39.639 439.059C38.8564 437.798 38.4651 435.977 38.4651 433.594C38.4651 431.224 38.8564 429.409 39.639 428.149C40.4216 426.888 41.5536 426.257 43.0349 426.257ZM39.9534 433.594C39.9534 435.284 40.1072 436.607 40.4146 437.563L45.0683 428.356C44.5791 427.705 43.9013 427.38 43.0349 427.38C42.0706 427.38 41.316 427.892 40.771 428.918C40.2259 429.929 39.9534 431.488 39.9534 433.594ZM43.0349 439.807C44.0131 439.807 44.7748 439.302 45.3198 438.29C45.8648 437.265 46.1373 435.699 46.1373 433.594C46.1373 431.806 45.9627 430.421 45.6133 429.437L40.9596 438.727C41.4627 439.447 42.1545 439.807 43.0349 439.807Z" fill="url(#paint7_linear_175_198)" fill-opacity="0.6"/>
<path d="M43.0349 450.008C44.5302 450.008 45.6622 450.639 46.4308 451.9C47.2134 453.147 47.6047 454.962 47.6047 457.345C47.6047 459.728 47.2134 461.549 46.4308 462.81C45.6622 464.071 44.5302 464.701 43.0349 464.701C41.5536 464.701 40.4216 464.071 39.639 462.81C38.8564 461.549 38.4651 459.728 38.4651 457.345C38.4651 454.975 38.8564 453.16 39.639 451.9C40.4216 450.639 41.5536 450.008 43.0349 450.008ZM39.9534 457.345C39.9534 459.035 40.1072 460.358 40.4146 461.314L45.0683 452.107C44.5791 451.456 43.9013 451.131 43.0349 451.131C42.0706 451.131 41.316 451.643 40.771 452.669C40.2259 453.68 39.9534 455.239 39.9534 457.345ZM43.0349 463.558C44.0131 463.558 44.7748 463.053 45.3198 462.041C45.8648 461.016 46.1373 459.451 46.1373 457.345C46.1373 455.557 45.9627 454.172 45.6133 453.188L40.9596 462.478C41.4627 463.198 42.1545 463.558 43.0349 463.558Z" fill="url(#paint8_linear_175_198)" fill-opacity="0.6"/>
<path d="M44.2926 487.143H47.3741V488.245H39.3874V487.143H42.9511V475.464L39.5551 477.48L38.9682 476.544L43.1607 473.967H44.2926V487.143Z" fill="url(#paint9_linear_175_198)" fill-opacity="0.6"/>
<path d="M43.0349 497.511C44.5302 497.511 45.6622 498.141 46.4308 499.402C47.2134 500.649 47.6047 502.464 47.6047 504.847C47.6047 507.23 47.2134 509.052 46.4308 510.312C45.6622 511.573 44.5302 512.204 43.0349 512.204C41.5536 512.204 40.4216 511.573 39.639 510.312C38.8564 509.052 38.4651 507.23 38.4651 504.847C38.4651 502.478 38.8564 500.663 39.639 499.402C40.4216 498.141 41.5536 497.511 43.0349 497.511ZM39.9534 504.847C39.9534 506.537 40.1072 507.86 40.4146 508.816L45.0683 499.61C44.5791 498.958 43.9013 498.633 43.0349 498.633C42.0706 498.633 41.316 499.145 40.771 500.171C40.2259 501.182 39.9534 502.741 39.9534 504.847ZM43.0349 511.061C44.0131 511.061 44.7748 510.555 45.3198 509.543C45.8648 508.518 46.1373 506.953 46.1373 504.847C46.1373 503.059 45.9627 501.674 45.6133 500.69L40.9596 509.98C41.4627 510.7 42.1545 511.061 43.0349 511.061Z" fill="url(#paint10_linear_175_198)" fill-opacity="0.6"/>
<path d="M44.2926 534.645H47.3741V535.747H39.3874V534.645H42.9511V522.966L39.5551 524.982L38.9682 524.046L43.1607 521.469H44.2926V534.645Z" fill="url(#paint11_linear_175_198)" fill-opacity="0.6"/>
<path d="M44.2926 558.396H47.3741V559.498H39.3874V558.396H42.9511V546.717L39.5551 548.733L38.9682 547.798L43.1607 545.221H44.2926V558.396Z" fill="url(#paint12_linear_175_198)" fill-opacity="0.6"/>
<path d="M81.9651 307.502C83.4604 307.502 84.5924 308.133 85.361 309.393C86.1436 310.64 86.5349 312.455 86.5349 314.838C86.5349 317.221 86.1436 319.043 85.361 320.304C84.5924 321.565 83.4604 322.195 81.9651 322.195C80.4838 322.195 79.3518 321.565 78.5692 320.304C77.7866 319.043 77.3953 317.221 77.3953 314.838C77.3953 312.469 77.7866 310.654 78.5692 309.393C79.3518 308.133 80.4838 307.502 81.9651 307.502ZM78.8836 314.838C78.8836 316.529 79.0374 317.852 79.3448 318.808L83.9985 309.601C83.5093 308.95 82.8315 308.624 81.9651 308.624C81.0008 308.624 80.2462 309.137 79.7012 310.162C79.1561 311.174 78.8836 312.732 78.8836 314.838ZM81.9651 321.052C82.9433 321.052 83.705 320.546 84.25 319.535C84.795 318.51 85.0675 316.944 85.0675 314.838C85.0675 313.051 84.8928 311.665 84.5435 310.682L79.8898 319.971C80.3929 320.692 81.0847 321.052 81.9651 321.052Z" fill="url(#paint13_linear_175_198)" fill-opacity="0.6"/>
<path d="M83.2228 344.637H86.3043V345.738H78.3176V344.637H81.8812V332.957L78.4853 334.973L77.8984 334.038L82.0909 331.461H83.2228V344.637Z" fill="url(#paint14_linear_175_198)" fill-opacity="0.6"/>
<path d="M81.9651 355.004C83.4604 355.004 84.5924 355.635 85.361 356.895C86.1436 358.142 86.5349 359.957 86.5349 362.34C86.5349 364.723 86.1436 366.545 85.361 367.806C84.5924 369.067 83.4604 369.697 81.9651 369.697C80.4838 369.697 79.3518 369.067 78.5692 367.806C77.7866 366.545 77.3953 364.723 77.3953 362.34C77.3953 359.971 77.7866 358.156 78.5692 356.895C79.3518 355.635 80.4838 355.004 81.9651 355.004ZM78.8836 362.34C78.8836 364.031 79.0374 365.354 79.3448 366.31L83.9985 357.103C83.5093 356.452 82.8315 356.126 81.9651 356.126C81.0008 356.126 80.2462 356.639 79.7012 357.664C79.1561 358.676 78.8836 360.234 78.8836 362.34ZM81.9651 368.554C82.9433 368.554 83.705 368.049 84.25 367.037C84.795 366.012 85.0675 364.446 85.0675 362.34C85.0675 360.553 84.8928 359.168 84.5435 358.184L79.8898 367.474C80.3929 368.194 81.0847 368.554 81.9651 368.554Z" fill="url(#paint15_linear_175_198)" fill-opacity="0.6"/>
<path d="M81.9651 378.755C83.4604 378.755 84.5924 379.386 85.361 380.646C86.1436 381.893 86.5349 383.708 86.5349 386.091C86.5349 388.474 86.1436 390.296 85.361 391.557C84.5924 392.818 83.4604 393.448 81.9651 393.448C80.4838 393.448 79.3518 392.818 78.5692 391.557C77.7866 390.296 77.3953 388.474 77.3953 386.091C77.3953 383.722 77.7866 381.907 78.5692 380.646C79.3518 379.386 80.4838 378.755 81.9651 378.755ZM78.8836 386.091C78.8836 387.782 79.0374 389.105 79.3448 390.061L83.9985 380.854C83.5093 380.203 82.8315 379.878 81.9651 379.878C81.0008 379.878 80.2462 380.39 79.7012 381.415C79.1561 382.427 78.8836 383.985 78.8836 386.091ZM81.9651 392.305C82.9433 392.305 83.705 391.8 84.25 390.788C84.795 389.763 85.0675 388.197 85.0675 386.091C85.0675 384.304 84.8928 382.919 84.5435 381.935L79.8898 391.225C80.3929 391.945 81.0847 392.305 81.9651 392.305Z" fill="url(#paint16_linear_175_198)" fill-opacity="0.6"/>
<path d="M83.2228 415.89H86.3043V416.992H78.3176V415.89H81.8812V404.21L78.4853 406.226L77.8984 405.291L82.0909 402.714H83.2228V415.89Z" fill="url(#paint17_linear_175_198)" fill-opacity="0.6"/>
<path d="M81.9651 426.257C83.4604 426.257 84.5924 426.888 85.361 428.149C86.1436 429.396 86.5349 431.211 86.5349 433.594C86.5349 435.977 86.1436 437.798 85.361 439.059C84.5924 440.32 83.4604 440.95 81.9651 440.95C80.4838 440.95 79.3518 440.32 78.5692 439.059C77.7866 437.798 77.3953 435.977 77.3953 433.594C77.3953 431.224 77.7866 429.409 78.5692 428.149C79.3518 426.888 80.4838 426.257 81.9651 426.257ZM78.8836 433.594C78.8836 435.284 79.0374 436.607 79.3448 437.563L83.9985 428.356C83.5093 427.705 82.8315 427.38 81.9651 427.38C81.0008 427.38 80.2462 427.892 79.7012 428.918C79.1561 429.929 78.8836 431.488 78.8836 433.594ZM81.9651 439.807C82.9433 439.807 83.705 439.302 84.25 438.29C84.795 437.265 85.0675 435.699 85.0675 433.594C85.0675 431.806 84.8928 430.421 84.5435 429.437L79.8898 438.727C80.3929 439.447 81.0847 439.807 81.9651 439.807Z" fill="url(#paint18_linear_175_198)" fill-opacity="0.6"/>
<path d="M83.2228 463.392H86.3043V464.494H78.3176V463.392H81.8812V451.713L78.4853 453.728L77.8984 452.793L82.0909 450.216H83.2228V463.392Z" fill="url(#paint19_linear_175_198)" fill-opacity="0.6"/>
<path d="M81.9651 473.76C83.4604 473.76 84.5924 474.39 85.361 475.651C86.1436 476.898 86.5349 478.713 86.5349 481.096C86.5349 483.479 86.1436 485.301 85.361 486.561C84.5924 487.822 83.4604 488.453 81.9651 488.453C80.4838 488.453 79.3518 487.822 78.5692 486.561C77.7866 485.301 77.3953 483.479 77.3953 481.096C77.3953 478.726 77.7866 476.911 78.5692 475.651C79.3518 474.39 80.4838 473.76 81.9651 473.76ZM78.8836 481.096C78.8836 482.786 79.0374 484.109 79.3448 485.065L83.9985 475.859C83.5093 475.207 82.8315 474.882 81.9651 474.882C81.0008 474.882 80.2462 475.394 79.7012 476.42C79.1561 477.431 78.8836 478.99 78.8836 481.096ZM81.9651 487.31C82.9433 487.31 83.705 486.804 84.25 485.792C84.795 484.767 85.0675 483.202 85.0675 481.096C85.0675 479.308 84.8928 477.923 84.5435 476.939L79.8898 486.229C80.3929 486.949 81.0847 487.31 81.9651 487.31Z" fill="url(#paint20_linear_175_198)" fill-opacity="0.6"/>
<path d="M81.9651 497.511C83.4604 497.511 84.5924 498.141 85.361 499.402C86.1436 500.649 86.5349 502.464 86.5349 504.847C86.5349 507.23 86.1436 509.052 85.361 510.312C84.5924 511.573 83.4604 512.204 81.9651 512.204C80.4838 512.204 79.3518 511.573 78.5692 510.312C77.7866 509.052 77.3953 507.23 77.3953 504.847C77.3953 502.478 77.7866 500.663 78.5692 499.402C79.3518 498.141 80.4838 497.511 81.9651 497.511ZM78.8836 504.847C78.8836 506.537 79.0374 507.86 79.3448 508.816L83.9985 499.61C83.5093 498.958 82.8315 498.633 81.9651 498.633C81.0008 498.633 80.2462 499.145 79.7012 500.171C79.1561 501.182 78.8836 502.741 78.8836 504.847ZM81.9651 511.061C82.9433 511.061 83.705 510.555 84.25 509.543C84.795 508.518 85.0675 506.953 85.0675 504.847C85.0675 503.059 84.8928 501.674 84.5435 500.69L79.8898 509.98C80.3929 510.7 81.0847 511.061 81.9651 511.061Z" fill="url(#paint21_linear_175_198)" fill-opacity="0.6"/>
<path d="M83.2228 534.645H86.3043V535.747H78.3176V534.645H81.8812V522.966L78.4853 524.982L77.8984 524.046L82.0909 521.469H83.2228V534.645Z" fill="url(#paint22_linear_175_198)" fill-opacity="0.6"/>
<path d="M81.9651 545.013C83.4604 545.013 84.5924 545.643 85.361 546.904C86.1436 548.151 86.5349 549.966 86.5349 552.349C86.5349 554.732 86.1436 556.554 85.361 557.815C84.5924 559.075 83.4604 559.706 81.9651 559.706C80.4838 559.706 79.3518 559.075 78.5692 557.815C77.7866 556.554 77.3953 554.732 77.3953 552.349C77.3953 549.98 77.7866 548.165 78.5692 546.904C79.3518 545.643 80.4838 545.013 81.9651 545.013ZM78.8836 552.349C78.8836 554.039 79.0374 555.362 79.3448 556.318L83.9985 547.112C83.5093 546.461 82.8315 546.135 81.9651 546.135C81.0008 546.135 80.2462 546.648 79.7012 547.673C79.1561 548.684 78.8836 550.243 78.8836 552.349ZM81.9651 558.563C82.9433 558.563 83.705 558.057 84.25 557.046C84.795 556.02 85.0675 554.455 85.0675 552.349C85.0675 550.562 84.8928 549.176 84.5435 548.192L79.8898 557.482C80.3929 558.202 81.0847 558.563 81.9651 558.563Z" fill="url(#paint23_linear_175_198)" fill-opacity="0.6"/>
<path d="M83.2228 582.148H86.3043V583.249H78.3176V582.148H81.8812V570.468L78.4853 572.484L77.8984 571.549L82.0909 568.972H83.2228V582.148Z" fill="url(#paint24_linear_175_198)" fill-opacity="0.6"/>
<path d="M83.2228 605.899H86.3043V607H78.3176V605.899H81.8812V594.219L78.4853 596.235L77.8984 595.3L82.0909 592.723H83.2228V605.899Z" fill="url(#paint25_linear_175_198)" fill-opacity="0.6"/>
<path d="M23.5698 331.253C25.0651 331.253 26.1971 331.884 26.9657 333.144C27.7483 334.391 28.1396 336.206 28.1396 338.589C28.1396 340.972 27.7483 342.794 26.9657 344.055C26.1971 345.316 25.0651 345.946 23.5698 345.946C22.0885 345.946 20.9565 345.316 20.1739 344.055C19.3913 342.794 19 340.972 19 338.589C19 336.22 19.3913 334.405 20.1739 333.144C20.9565 331.884 22.0885 331.253 23.5698 331.253ZM20.4883 338.589C20.4883 340.28 20.6421 341.603 20.9495 342.559L25.6032 333.352C25.114 332.701 24.4363 332.375 23.5698 332.375C22.6055 332.375 21.8509 332.888 21.3059 333.913C20.7608 334.925 20.4883 336.483 20.4883 338.589ZM23.5698 344.803C24.5481 344.803 25.3097 344.297 25.8547 343.286C26.3997 342.261 26.6722 340.695 26.6722 338.589C26.6722 336.802 26.4976 335.417 26.1482 334.433L21.4945 343.722C21.9976 344.443 22.6894 344.803 23.5698 344.803Z" fill="url(#paint26_linear_175_198)" fill-opacity="0.6"/>
<path d="M23.5698 355.004C25.0651 355.004 26.1971 355.635 26.9657 356.895C27.7483 358.142 28.1396 359.957 28.1396 362.34C28.1396 364.723 27.7483 366.545 26.9657 367.806C26.1971 369.067 25.0651 369.697 23.5698 369.697C22.0885 369.697 20.9565 369.067 20.1739 367.806C19.3913 366.545 19 364.723 19 362.34C19 359.971 19.3913 358.156 20.1739 356.895C20.9565 355.635 22.0885 355.004 23.5698 355.004ZM20.4883 362.34C20.4883 364.031 20.6421 365.354 20.9495 366.31L25.6032 357.103C25.114 356.452 24.4363 356.126 23.5698 356.126C22.6055 356.126 21.8509 356.639 21.3059 357.664C20.7608 358.676 20.4883 360.234 20.4883 362.34ZM23.5698 368.554C24.5481 368.554 25.3097 368.049 25.8547 367.037C26.3997 366.012 26.6722 364.446 26.6722 362.34C26.6722 360.553 26.4976 359.168 26.1482 358.184L21.4945 367.474C21.9976 368.194 22.6894 368.554 23.5698 368.554Z" fill="url(#paint27_linear_175_198)" fill-opacity="0.6"/>
<path d="M24.8276 392.139H27.909V393.24H19.9223V392.139H23.486V380.459L20.09 382.475L19.5031 381.54L23.6956 378.963H24.8276V392.139Z" fill="url(#paint28_linear_175_198)" fill-opacity="0.6"/>
<path d="M23.5698 402.506C25.0651 402.506 26.1971 403.137 26.9657 404.398C27.7483 405.644 28.1396 407.459 28.1396 409.842C28.1396 412.225 27.7483 414.047 26.9657 415.308C26.1971 416.569 25.0651 417.199 23.5698 417.199C22.0885 417.199 20.9565 416.569 20.1739 415.308C19.3913 414.047 19 412.225 19 409.842C19 407.473 19.3913 405.658 20.1739 404.398C20.9565 403.137 22.0885 402.506 23.5698 402.506ZM20.4883 409.842C20.4883 411.533 20.6421 412.856 20.9495 413.812L25.6032 404.605C25.114 403.954 24.4363 403.629 23.5698 403.629C22.6055 403.629 21.8509 404.141 21.3059 405.166C20.7608 406.178 20.4883 407.737 20.4883 409.842ZM23.5698 416.056C24.5481 416.056 25.3097 415.551 25.8547 414.539C26.3997 413.514 26.6722 411.948 26.6722 409.842C26.6722 408.055 26.4976 406.67 26.1482 405.686L21.4945 414.976C21.9976 415.696 22.6894 416.056 23.5698 416.056Z" fill="url(#paint29_linear_175_198)" fill-opacity="0.6"/>
<path d="M24.8276 439.641H27.909V440.743H19.9223V439.641H23.486V427.962L20.09 429.977L19.5031 429.042L23.6956 426.465H24.8276V439.641Z" fill="url(#paint30_linear_175_198)" fill-opacity="0.6"/>
<path d="M24.8276 463.392H27.909V464.494H19.9223V463.392H23.486V451.713L20.09 453.728L19.5031 452.793L23.6956 450.216H24.8276V463.392Z" fill="url(#paint31_linear_175_198)" fill-opacity="0.6"/>
<path d="M63.7577 297.135H66.8392V298.236H58.8525V297.135H62.4162V285.455L59.0202 287.471L58.4333 286.536L62.6258 283.959H63.7577V297.135Z" fill="url(#paint32_linear_175_198)" fill-opacity="0.6"/>
<path d="M62.5 307.502C63.9953 307.502 65.1273 308.133 65.8959 309.393C66.6785 310.64 67.0698 312.455 67.0698 314.838C67.0698 317.221 66.6785 319.043 65.8959 320.304C65.1273 321.565 63.9953 322.195 62.5 322.195C61.0187 322.195 59.8867 321.565 59.1041 320.304C58.3215 319.043 57.9302 317.221 57.9302 314.838C57.9302 312.469 58.3215 310.654 59.1041 309.393C59.8867 308.133 61.0187 307.502 62.5 307.502ZM59.4185 314.838C59.4185 316.529 59.5723 317.852 59.8797 318.808L64.5334 309.601C64.0442 308.95 63.3664 308.624 62.5 308.624C61.5357 308.624 60.7811 309.137 60.2361 310.162C59.691 311.174 59.4185 312.732 59.4185 314.838ZM62.5 321.052C63.4782 321.052 64.2399 320.546 64.7849 319.535C65.3299 318.51 65.6024 316.944 65.6024 314.838C65.6024 313.051 65.4277 311.665 65.0784 310.682L60.4247 319.971C60.9278 320.692 61.6196 321.052 62.5 321.052Z" fill="url(#paint33_linear_175_198)" fill-opacity="0.6"/>
<path d="M63.7577 344.637H66.8392V345.738H58.8525V344.637H62.4162V332.957L59.0202 334.973L58.4333 334.038L62.6258 331.461H63.7577V344.637Z" fill="url(#paint34_linear_175_198)" fill-opacity="0.6"/>
<path d="M63.7577 368.388H66.8392V369.489H58.8525V368.388H62.4162V356.708L59.0202 358.724L58.4333 357.789L62.6258 355.212H63.7577V368.388Z" fill="url(#paint35_linear_175_198)" fill-opacity="0.6"/>
<path d="M62.5 378.755C63.9953 378.755 65.1273 379.386 65.8959 380.646C66.6785 381.893 67.0698 383.708 67.0698 386.091C67.0698 388.474 66.6785 390.296 65.8959 391.557C65.1273 392.818 63.9953 393.448 62.5 393.448C61.0187 393.448 59.8867 392.818 59.1041 391.557C58.3215 390.296 57.9302 388.474 57.9302 386.091C57.9302 383.722 58.3215 381.907 59.1041 380.646C59.8867 379.386 61.0187 378.755 62.5 378.755ZM59.4185 386.091C59.4185 387.782 59.5723 389.105 59.8797 390.061L64.5334 380.854C64.0442 380.203 63.3664 379.878 62.5 379.878C61.5357 379.878 60.7811 380.39 60.2361 381.415C59.691 382.427 59.4185 383.985 59.4185 386.091ZM62.5 392.305C63.4782 392.305 64.2399 391.8 64.7849 390.788C65.3299 389.763 65.6024 388.197 65.6024 386.091C65.6024 384.304 65.4277 382.919 65.0784 381.935L60.4247 391.225C60.9278 391.945 61.6196 392.305 62.5 392.305Z" fill="url(#paint36_linear_175_198)" fill-opacity="0.6"/>
<path d="M63.7577 415.89H66.8392V416.992H58.8525V415.89H62.4162V404.21L59.0202 406.226L58.4333 405.291L62.6258 402.714H63.7577V415.89Z" fill="url(#paint37_linear_175_198)" fill-opacity="0.6"/>
<path d="M63.7577 439.641H66.8392V440.743H58.8525V439.641H62.4162V427.962L59.0202 429.977L58.4333 429.042L62.6258 426.465H63.7577V439.641Z" fill="url(#paint38_linear_175_198)" fill-opacity="0.6"/>
<path d="M62.5 450.008C63.9953 450.008 65.1273 450.639 65.8959 451.9C66.6785 453.147 67.0698 454.962 67.0698 457.345C67.0698 459.728 66.6785 461.549 65.8959 462.81C65.1273 464.071 63.9953 464.701 62.5 464.701C61.0187 464.701 59.8867 464.071 59.1041 462.81C58.3215 461.549 57.9302 459.728 57.9302 457.345C57.9302 454.975 58.3215 453.16 59.1041 451.9C59.8867 450.639 61.0187 450.008 62.5 450.008ZM59.4185 457.345C59.4185 459.035 59.5723 460.358 59.8797 461.314L64.5334 452.107C64.0442 451.456 63.3664 451.131 62.5 451.131C61.5357 451.131 60.7811 451.643 60.2361 452.669C59.691 453.68 59.4185 455.239 59.4185 457.345ZM62.5 463.558C63.4782 463.558 64.2399 463.053 64.7849 462.041C65.3299 461.016 65.6024 459.451 65.6024 457.345C65.6024 455.557 65.4277 454.172 65.0784 453.188L60.4247 462.478C60.9278 463.198 61.6196 463.558 62.5 463.558Z" fill="url(#paint39_linear_175_198)" fill-opacity="0.6"/>
<path d="M63.7577 487.143H66.8392V488.245H58.8525V487.143H62.4162V475.464L59.0202 477.48L58.4333 476.544L62.6258 473.967H63.7577V487.143Z" fill="url(#paint40_linear_175_198)" fill-opacity="0.6"/>
<path d="M62.5 497.511C63.9953 497.511 65.1273 498.141 65.8959 499.402C66.6785 500.649 67.0698 502.464 67.0698 504.847C67.0698 507.23 66.6785 509.052 65.8959 510.312C65.1273 511.573 63.9953 512.204 62.5 512.204C61.0187 512.204 59.8867 511.573 59.1041 510.312C58.3215 509.052 57.9302 507.23 57.9302 504.847C57.9302 502.478 58.3215 500.663 59.1041 499.402C59.8867 498.141 61.0187 497.511 62.5 497.511ZM59.4185 504.847C59.4185 506.537 59.5723 507.86 59.8797 508.816L64.5334 499.61C64.0442 498.958 63.3664 498.633 62.5 498.633C61.5357 498.633 60.7811 499.145 60.2361 500.171C59.691 501.182 59.4185 502.741 59.4185 504.847ZM62.5 511.061C63.4782 511.061 64.2399 510.555 64.7849 509.543C65.3299 508.518 65.6024 506.953 65.6024 504.847C65.6024 503.059 65.4277 501.674 65.0784 500.69L60.4247 509.98C60.9278 510.7 61.6196 511.061 62.5 511.061Z" fill="url(#paint41_linear_175_198)" fill-opacity="0.6"/>
<path d="M101.43 283.751C102.926 283.751 104.057 284.381 104.826 285.642C105.609 286.889 106 288.704 106 291.087C106 293.47 105.609 295.292 104.826 296.553C104.057 297.814 102.926 298.444 101.43 298.444C99.9489 298.444 98.8169 297.814 98.0343 296.553C97.2517 295.292 96.8604 293.47 96.8604 291.087C96.8604 288.718 97.2517 286.903 98.0343 285.642C98.8169 284.381 99.9489 283.751 101.43 283.751ZM98.3487 291.087C98.3487 292.777 98.5024 294.101 98.8099 295.057L103.464 285.85C102.974 285.199 102.297 284.873 101.43 284.873C100.466 284.873 99.7113 285.386 99.1663 286.411C98.6212 287.423 98.3487 288.981 98.3487 291.087ZM101.43 297.301C102.408 297.301 103.17 296.795 103.715 295.784C104.26 294.759 104.533 293.193 104.533 291.087C104.533 289.3 104.358 287.914 104.009 286.931L99.3549 296.22C99.858 296.941 100.55 297.301 101.43 297.301Z" fill="url(#paint42_linear_175_198)" fill-opacity="0.6"/>
<path d="M102.688 320.886H105.769V321.987H97.7827V320.886H101.346V309.206L97.9504 311.222L97.3635 310.287L101.556 307.71H102.688V320.886Z" fill="url(#paint43_linear_175_198)" fill-opacity="0.6"/>
<path d="M102.688 344.637H105.769V345.738H97.7827V344.637H101.346V332.957L97.9504 334.973L97.3635 334.038L101.556 331.461H102.688V344.637Z" fill="url(#paint44_linear_175_198)" fill-opacity="0.6"/>
<path d="M101.43 355.004C102.926 355.004 104.057 355.635 104.826 356.895C105.609 358.142 106 359.957 106 362.34C106 364.723 105.609 366.545 104.826 367.806C104.057 369.067 102.926 369.697 101.43 369.697C99.9489 369.697 98.8169 369.067 98.0343 367.806C97.2517 366.545 96.8604 364.723 96.8604 362.34C96.8604 359.971 97.2517 358.156 98.0343 356.895C98.8169 355.635 99.9489 355.004 101.43 355.004ZM98.3487 362.34C98.3487 364.031 98.5024 365.354 98.8099 366.31L103.464 357.103C102.974 356.452 102.297 356.126 101.43 356.126C100.466 356.126 99.7113 356.639 99.1663 357.664C98.6212 358.676 98.3487 360.234 98.3487 362.34ZM101.43 368.554C102.408 368.554 103.17 368.049 103.715 367.037C104.26 366.012 104.533 364.446 104.533 362.34C104.533 360.553 104.358 359.168 104.009 358.184L99.3549 367.474C99.858 368.194 100.55 368.554 101.43 368.554Z" fill="url(#paint45_linear_175_198)" fill-opacity="0.6"/>
<path d="M101.43 378.755C102.926 378.755 104.057 379.386 104.826 380.646C105.609 381.893 106 383.708 106 386.091C106 388.474 105.609 390.296 104.826 391.557C104.057 392.818 102.926 393.448 101.43 393.448C99.9489 393.448 98.8169 392.818 98.0343 391.557C97.2517 390.296 96.8604 388.474 96.8604 386.091C96.8604 383.722 97.2517 381.907 98.0343 380.646C98.8169 379.386 99.9489 378.755 101.43 378.755ZM98.3487 386.091C98.3487 387.782 98.5024 389.105 98.8099 390.061L103.464 380.854C102.974 380.203 102.297 379.878 101.43 379.878C100.466 379.878 99.7113 380.39 99.1663 381.415C98.6212 382.427 98.3487 383.985 98.3487 386.091ZM101.43 392.305C102.408 392.305 103.17 391.8 103.715 390.788C104.26 389.763 104.533 388.197 104.533 386.091C104.533 384.304 104.358 382.919 104.009 381.935L99.3549 391.225C99.858 391.945 100.55 392.305 101.43 392.305Z" fill="url(#paint46_linear_175_198)" fill-opacity="0.6"/>
<g opacity="0.6">
<path d="M929.93 -40C931.356 -40 932.436 -39.395 933.17 -38.1851C933.916 -36.9885 934.29 -35.2468 934.29 -32.9599C934.29 -30.673 933.916 -28.9246 933.17 -27.7147C932.436 -26.5048 931.356 -25.8998 929.93 -25.8998C928.517 -25.8998 927.437 -26.5048 926.69 -27.7147C925.943 -28.9246 925.57 -30.673 925.57 -32.9599C925.57 -35.2335 925.943 -36.9752 926.69 -38.1851C927.437 -39.395 928.517 -40 929.93 -40ZM926.99 -32.9599C926.99 -31.3378 927.137 -30.068 927.43 -29.1506L931.87 -37.9857C931.403 -38.6106 930.756 -38.923 929.93 -38.923C929.01 -38.923 928.29 -38.4311 927.77 -37.4472C927.25 -36.4766 926.99 -34.9808 926.99 -32.9599ZM929.93 -26.9967C930.863 -26.9967 931.59 -27.482 932.11 -28.4526C932.63 -29.4365 932.89 -30.9389 932.89 -32.9599C932.89 -34.675 932.723 -36.0046 932.39 -36.9486L927.95 -28.0338C928.43 -27.3424 929.09 -26.9967 929.93 -26.9967Z" fill="url(#paint47_linear_175_198)"/>
<path d="M931.13 -4.36345H934.07V-3.30644H926.45V-4.36345H929.85V-15.5718L926.61 -13.6373L926.05 -14.5347L930.05 -17.0078H931.13V-4.36345Z" fill="url(#paint48_linear_175_198)"/>
<path d="M929.93 5.58561C931.356 5.58561 932.436 6.19057 933.17 7.40048C933.916 8.59711 934.29 10.3389 934.29 12.6257C934.29 14.9126 933.916 16.661 933.17 17.8709C932.436 19.0808 931.356 19.6858 929.93 19.6858C928.517 19.6858 927.437 19.0808 926.69 17.8709C925.943 16.661 925.57 14.9126 925.57 12.6257C925.57 10.3522 925.943 8.6104 926.69 7.40048C927.437 6.19057 928.517 5.58561 929.93 5.58561ZM926.99 12.6257C926.99 14.2478 927.137 15.5176 927.43 16.435L931.87 7.59992C931.403 6.97502 930.756 6.66256 929.93 6.66256C929.01 6.66256 928.29 7.15451 927.77 8.1384C927.25 9.10899 926.99 10.6048 926.99 12.6257ZM929.93 18.5889C930.863 18.5889 931.59 18.1036 932.11 17.133C932.63 16.1491 932.89 14.6467 932.89 12.6257C932.89 10.9106 932.723 9.58099 932.39 8.63699L927.95 17.5518C928.43 18.2432 929.09 18.5889 929.93 18.5889Z" fill="url(#paint49_linear_175_198)"/>
<path d="M931.13 41.2221H934.07V42.2792H926.45V41.2221H929.85V30.0138L926.61 31.9483L926.05 31.0509L930.05 28.5778H931.13V41.2221Z" fill="url(#paint50_linear_175_198)"/>
<path d="M931.13 64.015H934.07V65.072H926.45V64.015H929.85V52.8066L926.61 54.7411L926.05 53.8437L930.05 51.3706H931.13V64.015Z" fill="url(#paint51_linear_175_198)"/>
<path d="M929.93 73.964C931.356 73.964 932.436 74.569 933.17 75.7789C933.916 76.9755 934.29 78.7173 934.29 81.0041C934.29 83.291 933.916 85.0394 933.17 86.2493C932.436 87.4593 931.356 88.0642 929.93 88.0642C928.517 88.0642 927.437 87.4593 926.69 86.2493C925.943 85.0394 925.57 83.291 925.57 81.0041C925.57 78.7306 925.943 76.9888 926.69 75.7789C927.437 74.569 928.517 73.964 929.93 73.964ZM926.99 81.0041C926.99 82.6262 927.137 83.896 927.43 84.8134L931.87 75.9783C931.403 75.3534 930.756 75.041 929.93 75.041C929.01 75.041 928.29 75.5329 927.77 76.5168C927.25 77.4874 926.99 78.9832 926.99 81.0041ZM929.93 86.9673C930.863 86.9673 931.59 86.482 932.11 85.5114C932.63 84.5275 932.89 83.0251 932.89 81.0041C932.89 79.289 932.723 77.9594 932.39 77.0154L927.95 85.9302C928.43 86.6216 929.09 86.9673 929.93 86.9673Z" fill="url(#paint52_linear_175_198)"/>
<path d="M931.13 109.601H934.07V110.658H926.45V109.601H929.85V98.3922L926.61 100.327L926.05 99.4293L930.05 96.9562H931.13V109.601Z" fill="url(#paint53_linear_175_198)"/>
<path d="M929.93 119.55C931.356 119.55 932.436 120.155 933.17 121.365C933.916 122.561 934.29 124.303 934.29 126.59C934.29 128.877 933.916 130.625 933.17 131.835C932.436 133.045 931.356 133.65 929.93 133.65C928.517 133.65 927.437 133.045 926.69 131.835C925.943 130.625 925.57 128.877 925.57 126.59C925.57 124.316 925.943 122.574 926.69 121.365C927.437 120.155 928.517 119.55 929.93 119.55ZM926.99 126.59C926.99 128.212 927.137 129.482 927.43 130.399L931.87 121.564C931.403 120.939 930.756 120.627 929.93 120.627C929.01 120.627 928.29 121.119 927.77 122.102C927.25 123.073 926.99 124.569 926.99 126.59ZM929.93 132.553C930.863 132.553 931.59 132.068 932.11 131.097C932.63 130.113 932.89 128.611 932.89 126.59C932.89 124.875 932.723 123.545 932.39 122.601L927.95 131.516C928.43 132.207 929.09 132.553 929.93 132.553Z" fill="url(#paint54_linear_175_198)"/>
<path d="M929.93 142.342C931.356 142.342 932.436 142.947 933.17 144.157C933.916 145.354 934.29 147.096 934.29 149.383C934.29 151.669 933.916 153.418 933.17 154.628C932.436 155.838 931.356 156.443 929.93 156.443C928.517 156.443 927.437 155.838 926.69 154.628C925.943 153.418 925.57 151.669 925.57 149.383C925.57 147.109 925.943 145.367 926.69 144.157C927.437 142.947 928.517 142.342 929.93 142.342ZM926.99 149.383C926.99 151.005 927.137 152.274 927.43 153.192L931.87 144.357C931.403 143.732 930.756 143.419 929.93 143.419C929.01 143.419 928.29 143.911 927.77 144.895C927.25 145.866 926.99 147.362 926.99 149.383ZM929.93 155.346C930.863 155.346 931.59 154.86 932.11 153.89C932.63 152.906 932.89 151.404 932.89 149.383C932.89 147.667 932.723 146.338 932.39 145.394L927.95 154.309C928.43 155 929.09 155.346 929.93 155.346Z" fill="url(#paint55_linear_175_198)"/>
<path d="M931.13 177.979H934.07V179.036H926.45V177.979H929.85V166.771L926.61 168.705L926.05 167.808L930.05 165.335H931.13V177.979Z" fill="url(#paint56_linear_175_198)"/>
<path d="M929.93 187.928C931.356 187.928 932.436 188.533 933.17 189.743C933.916 190.94 934.29 192.681 934.29 194.968C934.29 197.255 933.916 199.003 933.17 200.213C932.436 201.423 931.356 202.028 929.93 202.028C928.517 202.028 927.437 201.423 926.69 200.213C925.943 199.003 925.57 197.255 925.57 194.968C925.57 192.695 925.943 190.953 926.69 189.743C927.437 188.533 928.517 187.928 929.93 187.928ZM926.99 194.968C926.99 196.59 927.137 197.86 927.43 198.777L931.87 189.942C931.403 189.317 930.756 189.005 929.93 189.005C929.01 189.005 928.29 189.497 927.77 190.481C927.25 191.451 926.99 192.947 926.99 194.968ZM929.93 200.931C930.863 200.931 931.59 200.446 932.11 199.475C932.63 198.492 932.89 196.989 932.89 194.968C932.89 193.253 932.723 191.923 932.39 190.979L927.95 199.894C928.43 200.586 929.09 200.931 929.93 200.931Z" fill="url(#paint57_linear_175_198)"/>
<path d="M931.13 223.565H934.07V224.622H926.45V223.565H929.85V212.356L926.61 214.291L926.05 213.393L930.05 210.92H931.13V223.565Z" fill="url(#paint58_linear_175_198)"/>
<path d="M931.13 246.357H934.07V247.414H926.45V246.357H929.85V235.149L926.61 237.084L926.05 236.186L930.05 233.713H931.13V246.357Z" fill="url(#paint59_linear_175_198)"/>
<path d="M967.07 5.58561C968.497 5.58561 969.577 6.19057 970.31 7.40048C971.057 8.59711 971.43 10.3389 971.43 12.6257C971.43 14.9126 971.057 16.661 970.31 17.8709C969.577 19.0808 968.497 19.6858 967.07 19.6858C965.657 19.6858 964.577 19.0808 963.83 17.8709C963.084 16.661 962.71 14.9126 962.71 12.6257C962.71 10.3522 963.084 8.6104 963.83 7.40048C964.577 6.19057 965.657 5.58561 967.07 5.58561ZM964.13 12.6257C964.13 14.2478 964.277 15.5176 964.57 16.435L969.01 7.59992C968.543 6.97502 967.897 6.66256 967.07 6.66256C966.15 6.66256 965.43 7.15451 964.91 8.1384C964.39 9.10899 964.13 10.6048 964.13 12.6257ZM967.07 18.5889C968.003 18.5889 968.73 18.1036 969.25 17.133C969.77 16.1491 970.03 14.6467 970.03 12.6257C970.03 10.9106 969.863 9.58099 969.53 8.63699L965.09 17.5518C965.57 18.2432 966.23 18.5889 967.07 18.5889Z" fill="url(#paint60_linear_175_198)"/>
<path d="M968.27 41.2221H971.21V42.2792H963.59V41.2221H966.99V30.0138L963.75 31.9483L963.19 31.0509L967.19 28.5778H968.27V41.2221Z" fill="url(#paint61_linear_175_198)"/>
<path d="M967.07 51.1712C968.497 51.1712 969.577 51.7762 970.31 52.9861C971.057 54.1827 971.43 55.9245 971.43 58.2113C971.43 60.4982 971.057 62.2466 970.31 63.4565C969.577 64.6664 968.497 65.2714 967.07 65.2714C965.657 65.2714 964.577 64.6664 963.83 63.4565C963.084 62.2466 962.71 60.4982 962.71 58.2113C962.71 55.9378 963.084 54.196 963.83 52.9861C964.577 51.7762 965.657 51.1712 967.07 51.1712ZM964.13 58.2113C964.13 59.8334 964.277 61.1032 964.57 62.0206L969.01 53.1855C968.543 52.5606 967.897 52.2482 967.07 52.2482C966.15 52.2482 965.43 52.7401 964.91 53.724C964.39 54.6946 964.13 56.1904 964.13 58.2113ZM967.07 64.1745C968.003 64.1745 968.73 63.6892 969.25 62.7186C969.77 61.7347 970.03 60.2323 970.03 58.2113C970.03 56.4962 969.863 55.1666 969.53 54.2226L965.09 63.1374C965.57 63.8288 966.23 64.1745 967.07 64.1745Z" fill="url(#paint62_linear_175_198)"/>
<path d="M967.07 73.964C968.497 73.964 969.577 74.569 970.31 75.7789C971.057 76.9755 971.43 78.7173 971.43 81.0041C971.43 83.291 971.057 85.0394 970.31 86.2493C969.577 87.4593 968.497 88.0642 967.07 88.0642C965.657 88.0642 964.577 87.4593 963.83 86.2493C963.084 85.0394 962.71 83.291 962.71 81.0041C962.71 78.7306 963.084 76.9888 963.83 75.7789C964.577 74.569 965.657 73.964 967.07 73.964ZM964.13 81.0041C964.13 82.6262 964.277 83.896 964.57 84.8134L969.01 75.9783C968.543 75.3534 967.897 75.041 967.07 75.041C966.15 75.041 965.43 75.5329 964.91 76.5168C964.39 77.4874 964.13 78.9832 964.13 81.0041ZM967.07 86.9673C968.003 86.9673 968.73 86.482 969.25 85.5114C969.77 84.5275 970.03 83.0251 970.03 81.0041C970.03 79.289 969.863 77.9594 969.53 77.0154L965.09 85.9302C965.57 86.6216 966.23 86.9673 967.07 86.9673Z" fill="url(#paint63_linear_175_198)"/>
<path d="M968.27 109.601H971.21V110.658H963.59V109.601H966.99V98.3922L963.75 100.327L963.19 99.4293L967.19 96.9562H968.27V109.601Z" fill="url(#paint64_linear_175_198)"/>
<path d="M967.07 119.55C968.497 119.55 969.577 120.155 970.31 121.365C971.057 122.561 971.43 124.303 971.43 126.59C971.43 128.877 971.057 130.625 970.31 131.835C969.577 133.045 968.497 133.65 967.07 133.65C965.657 133.65 964.577 133.045 963.83 131.835C963.084 130.625 962.71 128.877 962.71 126.59C962.71 124.316 963.084 122.574 963.83 121.365C964.577 120.155 965.657 119.55 967.07 119.55ZM964.13 126.59C964.13 128.212 964.277 129.482 964.57 130.399L969.01 121.564C968.543 120.939 967.897 120.627 967.07 120.627C966.15 120.627 965.43 121.119 964.91 122.102C964.39 123.073 964.13 124.569 964.13 126.59ZM967.07 132.553C968.003 132.553 968.73 132.068 969.25 131.097C969.77 130.113 970.03 128.611 970.03 126.59C970.03 124.875 969.863 123.545 969.53 122.601L965.09 131.516C965.57 132.207 966.23 132.553 967.07 132.553Z" fill="url(#paint65_linear_175_198)"/>
<path d="M968.27 155.186H971.21V156.243H963.59V155.186H966.99V143.978L963.75 145.912L963.19 145.015L967.19 142.542H968.27V155.186Z" fill="url(#paint66_linear_175_198)"/>
<path d="M967.07 165.135C968.497 165.135 969.577 165.74 970.31 166.95C971.057 168.147 971.43 169.888 971.43 172.175C971.43 174.462 971.057 176.211 970.31 177.421C969.577 178.63 968.497 179.235 967.07 179.235C965.657 179.235 964.577 178.63 963.83 177.421C963.084 176.211 962.71 174.462 962.71 172.175C962.71 169.902 963.084 168.16 963.83 166.95C964.577 165.74 965.657 165.135 967.07 165.135ZM964.13 172.175C964.13 173.797 964.277 175.067 964.57 175.985L969.01 167.15C968.543 166.525 967.897 166.212 967.07 166.212C966.15 166.212 965.43 166.704 964.91 167.688C964.39 168.659 964.13 170.154 964.13 172.175ZM967.07 178.139C968.003 178.139 968.73 177.653 969.25 176.683C969.77 175.699 970.03 174.196 970.03 172.175C970.03 170.46 969.863 169.131 969.53 168.187L965.09 177.101C965.57 177.793 966.23 178.139 967.07 178.139Z" fill="url(#paint67_linear_175_198)"/>
<path d="M967.07 187.928C968.497 187.928 969.577 188.533 970.31 189.743C971.057 190.94 971.43 192.681 971.43 194.968C971.43 197.255 971.057 199.003 970.31 200.213C969.577 201.423 968.497 202.028 967.07 202.028C965.657 202.028 964.577 201.423 963.83 200.213C963.084 199.003 962.71 197.255 962.71 194.968C962.71 192.695 963.084 190.953 963.83 189.743C964.577 188.533 965.657 187.928 967.07 187.928ZM964.13 194.968C964.13 196.59 964.277 197.86 964.57 198.777L969.01 189.942C968.543 189.317 967.897 189.005 967.07 189.005C966.15 189.005 965.43 189.497 964.91 190.481C964.39 191.451 964.13 192.947 964.13 194.968ZM967.07 200.931C968.003 200.931 968.73 200.446 969.25 199.475C969.77 198.492 970.03 196.989 970.03 194.968C970.03 193.253 969.863 191.923 969.53 190.979L965.09 199.894C965.57 200.586 966.23 200.931 967.07 200.931Z" fill="url(#paint68_linear_175_198)"/>
<path d="M968.27 223.565H971.21V224.622H963.59V223.565H966.99V212.356L963.75 214.291L963.19 213.393L967.19 210.92H968.27V223.565Z" fill="url(#paint69_linear_175_198)"/>
<path d="M967.07 233.514C968.497 233.514 969.577 234.119 970.31 235.329C971.057 236.525 971.43 238.267 971.43 240.554C971.43 242.841 971.057 244.589 970.31 245.799C969.577 247.009 968.497 247.614 967.07 247.614C965.657 247.614 964.577 247.009 963.83 245.799C963.084 244.589 962.71 242.841 962.71 240.554C962.71 238.28 963.084 236.538 963.83 235.329C964.577 234.119 965.657 233.514 967.07 233.514ZM964.13 240.554C964.13 242.176 964.277 243.446 964.57 244.363L969.01 235.528C968.543 234.903 967.897 234.591 967.07 234.591C966.15 234.591 965.43 235.083 964.91 236.066C964.39 237.037 964.13 238.533 964.13 240.554ZM967.07 246.517C968.003 246.517 968.73 246.032 969.25 245.061C969.77 244.077 970.03 242.575 970.03 240.554C970.03 238.839 969.863 237.509 969.53 236.565L965.09 245.48C965.57 246.171 966.23 246.517 967.07 246.517Z" fill="url(#paint70_linear_175_198)"/>
<path d="M968.27 269.15H971.21V270.207H963.59V269.15H966.99V257.942L963.75 259.876L963.19 258.979L967.19 256.506H968.27V269.15Z" fill="url(#paint71_linear_175_198)"/>
<path d="M968.27 291.943H971.21V293H963.59V291.943H966.99V280.735L963.75 282.669L963.19 281.772L967.19 279.299H968.27V291.943Z" fill="url(#paint72_linear_175_198)"/>
<path d="M911.36 28.3784C912.786 28.3784 913.866 28.9834 914.599 30.1933C915.346 31.3899 915.719 33.1317 915.719 35.4185C915.719 37.7054 915.346 39.4538 914.599 40.6637C913.866 41.8736 912.786 42.4786 911.36 42.4786C909.946 42.4786 908.867 41.8736 908.12 40.6637C907.373 39.4538 907 37.7054 907 35.4185C907 33.145 907.373 31.4032 908.12 30.1933C908.867 28.9834 909.946 28.3784 911.36 28.3784ZM908.42 35.4185C908.42 37.0406 908.567 38.3104 908.86 39.2278L913.3 30.3927C912.833 29.7678 912.186 29.4554 911.36 29.4554C910.44 29.4554 909.72 29.9473 909.2 30.9312C908.68 31.9018 908.42 33.3976 908.42 35.4185ZM911.36 41.3817C912.293 41.3817 913.02 40.8964 913.54 39.9258C914.06 38.9419 914.319 37.4395 914.319 35.4185C914.319 33.7034 914.153 32.3738 913.82 31.4298L909.38 40.3446C909.86 41.036 910.52 41.3817 911.36 41.3817Z" fill="url(#paint73_linear_175_198)"/>
<path d="M911.36 51.1712C912.786 51.1712 913.866 51.7762 914.599 52.9861C915.346 54.1827 915.719 55.9245 915.719 58.2113C915.719 60.4982 915.346 62.2466 914.599 63.4565C913.866 64.6664 912.786 65.2714 911.36 65.2714C909.946 65.2714 908.867 64.6664 908.12 63.4565C907.373 62.2466 907 60.4982 907 58.2113C907 55.9378 907.373 54.196 908.12 52.9861C908.867 51.7762 909.946 51.1712 911.36 51.1712ZM908.42 58.2113C908.42 59.8334 908.567 61.1032 908.86 62.0206L913.3 53.1855C912.833 52.5606 912.186 52.2482 911.36 52.2482C910.44 52.2482 909.72 52.7401 909.2 53.724C908.68 54.6946 908.42 56.1904 908.42 58.2113ZM911.36 64.1745C912.293 64.1745 913.02 63.6892 913.54 62.7186C914.06 61.7347 914.319 60.2323 914.319 58.2113C914.319 56.4962 914.153 55.1666 913.82 54.2226L909.38 63.1374C909.86 63.8288 910.52 64.1745 911.36 64.1745Z" fill="url(#paint74_linear_175_198)"/>
<path d="M912.56 86.8078H915.499V87.8648H907.88V86.8078H911.28V75.5994L908.04 77.5339L907.48 76.6365L911.48 74.1635H912.56V86.8078Z" fill="url(#paint75_linear_175_198)"/>
<path d="M911.36 96.7568C912.786 96.7568 913.866 97.3618 914.599 98.5717C915.346 99.7683 915.719 101.51 915.719 103.797C915.719 106.084 915.346 107.832 914.599 109.042C913.866 110.252 912.786 110.857 911.36 110.857C909.946 110.857 908.867 110.252 908.12 109.042C907.373 107.832 907 106.084 907 103.797C907 101.523 907.373 99.7816 908.12 98.5717C908.867 97.3618 909.946 96.7568 911.36 96.7568ZM908.42 103.797C908.42 105.419 908.567 106.689 908.86 107.606L913.3 98.7711C912.833 98.1462 912.186 97.8338 911.36 97.8338C910.44 97.8338 909.72 98.3257 909.2 99.3096C908.68 100.28 908.42 101.776 908.42 103.797ZM911.36 109.76C912.293 109.76 913.02 109.275 913.54 108.304C914.06 107.32 914.319 105.818 914.319 103.797C914.319 102.082 914.153 100.752 913.82 99.8082L909.38 108.723C909.86 109.414 910.52 109.76 911.36 109.76Z" fill="url(#paint76_linear_175_198)"/>
<path d="M912.56 132.393H915.499V133.45H907.88V132.393H911.28V121.185L908.04 123.12L907.48 122.222L911.48 119.749H912.56V132.393Z" fill="url(#paint77_linear_175_198)"/>
<path d="M912.56 155.186H915.499V156.243H907.88V155.186H911.28V143.978L908.04 145.912L907.48 145.015L911.48 142.542H912.56V155.186Z" fill="url(#paint78_linear_175_198)"/>
<path d="M949.7 -4.36345H952.64V-3.30644H945.02V-4.36345H948.42V-15.5718L945.18 -13.6373L944.62 -14.5347L948.62 -17.0078H949.7V-4.36345Z" fill="url(#paint79_linear_175_198)"/>
<path d="M948.5 5.58561C949.927 5.58561 951.006 6.19057 951.74 7.40048C952.486 8.59711 952.86 10.3389 952.86 12.6257C952.86 14.9126 952.486 16.661 951.74 17.8709C951.006 19.0808 949.927 19.6858 948.5 19.6858C947.087 19.6858 946.007 19.0808 945.26 17.8709C944.514 16.661 944.14 14.9126 944.14 12.6257C944.14 10.3522 944.514 8.6104 945.26 7.40048C946.007 6.19057 947.087 5.58561 948.5 5.58561ZM945.56 12.6257C945.56 14.2478 945.707 15.5176 946 16.435L950.44 7.59992C949.973 6.97502 949.327 6.66256 948.5 6.66256C947.58 6.66256 946.86 7.15451 946.34 8.1384C945.82 9.10899 945.56 10.6048 945.56 12.6257ZM948.5 18.5889C949.433 18.5889 950.16 18.1036 950.68 17.133C951.2 16.1491 951.46 14.6467 951.46 12.6257C951.46 10.9106 951.293 9.58099 950.96 8.63699L946.52 17.5518C947 18.2432 947.66 18.5889 948.5 18.5889Z" fill="url(#paint80_linear_175_198)"/>
<path d="M949.7 41.2221H952.64V42.2792H945.02V41.2221H948.42V30.0138L945.18 31.9483L944.62 31.0509L948.62 28.5778H949.7V41.2221Z" fill="url(#paint81_linear_175_198)"/>
<path d="M949.7 64.015H952.64V65.072H945.02V64.015H948.42V52.8066L945.18 54.7411L944.62 53.8437L948.62 51.3706H949.7V64.015Z" fill="url(#paint82_linear_175_198)"/>
<path d="M948.5 73.964C949.927 73.964 951.006 74.569 951.74 75.7789C952.486 76.9755 952.86 78.7173 952.86 81.0041C952.86 83.291 952.486 85.0394 951.74 86.2493C951.006 87.4593 949.927 88.0642 948.5 88.0642C947.087 88.0642 946.007 87.4593 945.26 86.2493C944.514 85.0394 944.14 83.291 944.14 81.0041C944.14 78.7306 944.514 76.9888 945.26 75.7789C946.007 74.569 947.087 73.964 948.5 73.964ZM945.56 81.0041C945.56 82.6262 945.707 83.896 946 84.8134L950.44 75.9783C949.973 75.3534 949.327 75.041 948.5 75.041C947.58 75.041 946.86 75.5329 946.34 76.5168C945.82 77.4874 945.56 78.9832 945.56 81.0041ZM948.5 86.9673C949.433 86.9673 950.16 86.482 950.68 85.5114C951.2 84.5275 951.46 83.0251 951.46 81.0041C951.46 79.289 951.293 77.9594 950.96 77.0154L946.52 85.9302C947 86.6216 947.66 86.9673 948.5 86.9673Z" fill="url(#paint83_linear_175_198)"/>
<path d="M949.7 109.601H952.64V110.658H945.02V109.601H948.42V98.3922L945.18 100.327L944.62 99.4293L948.62 96.9562H949.7V109.601Z" fill="url(#paint84_linear_175_198)"/>
<path d="M949.7 132.393H952.64V133.45H945.02V132.393H948.42V121.185L945.18 123.12L944.62 122.222L948.62 119.749H949.7V132.393Z" fill="url(#paint85_linear_175_198)"/>
<path d="M948.5 142.342C949.927 142.342 951.006 142.947 951.74 144.157C952.486 145.354 952.86 147.096 952.86 149.383C952.86 151.669 952.486 153.418 951.74 154.628C951.006 155.838 949.927 156.443 948.5 156.443C947.087 156.443 946.007 155.838 945.26 154.628C944.514 153.418 944.14 151.669 944.14 149.383C944.14 147.109 944.514 145.367 945.26 144.157C946.007 142.947 947.087 142.342 948.5 142.342ZM945.56 149.383C945.56 151.005 945.707 152.274 946 153.192L950.44 144.357C949.973 143.732 949.327 143.419 948.5 143.419C947.58 143.419 946.86 143.911 946.34 144.895C945.82 145.866 945.56 147.362 945.56 149.383ZM948.5 155.346C949.433 155.346 950.16 154.86 950.68 153.89C951.2 152.906 951.46 151.404 951.46 149.383C951.46 147.667 951.293 146.338 950.96 145.394L946.52 154.309C947 155 947.66 155.346 948.5 155.346Z" fill="url(#paint86_linear_175_198)"/>
<path d="M949.7 177.979H952.64V179.036H945.02V177.979H948.42V166.771L945.18 168.705L944.62 167.808L948.62 165.335H949.7V177.979Z" fill="url(#paint87_linear_175_198)"/>
<path d="M948.5 187.928C949.927 187.928 951.006 188.533 951.74 189.743C952.486 190.94 952.86 192.681 952.86 194.968C952.86 197.255 952.486 199.003 951.74 200.213C951.006 201.423 949.927 202.028 948.5 202.028C947.087 202.028 946.007 201.423 945.26 200.213C944.514 199.003 944.14 197.255 944.14 194.968C944.14 192.695 944.514 190.953 945.26 189.743C946.007 188.533 947.087 187.928 948.5 187.928ZM945.56 194.968C945.56 196.59 945.707 197.86 946 198.777L950.44 189.942C949.973 189.317 949.327 189.005 948.5 189.005C947.58 189.005 946.86 189.497 946.34 190.481C945.82 191.451 945.56 192.947 945.56 194.968ZM948.5 200.931C949.433 200.931 950.16 200.446 950.68 199.475C951.2 198.492 951.46 196.989 951.46 194.968C951.46 193.253 951.293 191.923 950.96 190.979L946.52 199.894C947 200.586 947.66 200.931 948.5 200.931Z" fill="url(#paint88_linear_175_198)"/>
<path d="M985.64 -17.2072C987.067 -17.2072 988.147 -16.6022 988.88 -15.3923C989.627 -14.1957 990 -12.4539 990 -10.1671C990 -7.88019 989.627 -6.13179 988.88 -4.92188C988.147 -3.71196 987.067 -3.107 985.64 -3.107C984.227 -3.107 983.147 -3.71196 982.401 -4.92188C981.654 -6.13179 981.281 -7.88019 981.281 -10.1671C981.281 -12.4407 981.654 -14.1824 982.401 -15.3923C983.147 -16.6022 984.227 -17.2072 985.64 -17.2072ZM982.7 -10.1671C982.7 -8.54498 982.847 -7.27523 983.14 -6.35782L987.58 -15.1929C987.114 -15.8178 986.467 -16.1302 985.64 -16.1302C984.72 -16.1302 984 -15.6383 983.48 -14.6544C982.96 -13.6838 982.7 -12.188 982.7 -10.1671ZM985.64 -4.2039C986.574 -4.2039 987.3 -4.6892 987.82 -5.65979C988.34 -6.64368 988.6 -8.14611 988.6 -10.1671C988.6 -11.8822 988.433 -13.2118 988.1 -14.1558L983.66 -5.24098C984.14 -4.5496 984.8 -4.2039 985.64 -4.2039Z" fill="url(#paint89_linear_175_198)"/>
<path d="M986.84 18.4293H989.78V19.4864H982.161V18.4293H985.56V7.22099L982.321 9.15553L981.761 8.25806L985.76 5.78504H986.84V18.4293Z" fill="url(#paint90_linear_175_198)"/>
<path d="M986.84 41.2221H989.78V42.2792H982.161V41.2221H985.56V30.0138L982.321 31.9483L981.761 31.0509L985.76 28.5778H986.84V41.2221Z" fill="url(#paint91_linear_175_198)"/>
<path d="M985.64 51.1712C987.067 51.1712 988.147 51.7762 988.88 52.9861C989.627 54.1827 990 55.9245 990 58.2113C990 60.4982 989.627 62.2466 988.88 63.4565C988.147 64.6664 987.067 65.2714 985.64 65.2714C984.227 65.2714 983.147 64.6664 982.401 63.4565C981.654 62.2466 981.281 60.4982 981.281 58.2113C981.281 55.9378 981.654 54.196 982.401 52.9861C983.147 51.7762 984.227 51.1712 985.64 51.1712ZM982.7 58.2113C982.7 59.8334 982.847 61.1032 983.14 62.0206L987.58 53.1855C987.114 52.5606 986.467 52.2482 985.64 52.2482C984.72 52.2482 984 52.7401 983.48 53.724C982.96 54.6946 982.7 56.1904 982.7 58.2113ZM985.64 64.1745C986.574 64.1745 987.3 63.6892 987.82 62.7186C988.34 61.7347 988.6 60.2323 988.6 58.2113C988.6 56.4962 988.433 55.1666 988.1 54.2226L983.66 63.1374C984.14 63.8288 984.8 64.1745 985.64 64.1745Z" fill="url(#paint92_linear_175_198)"/>
<path d="M985.64 73.964C987.067 73.964 988.147 74.569 988.88 75.7789C989.627 76.9755 990 78.7173 990 81.0041C990 83.291 989.627 85.0394 988.88 86.2493C988.147 87.4593 987.067 88.0642 985.64 88.0642C984.227 88.0642 983.147 87.4593 982.401 86.2493C981.654 85.0394 981.281 83.291 981.281 81.0041C981.281 78.7306 981.654 76.9888 982.401 75.7789C983.147 74.569 984.227 73.964 985.64 73.964ZM982.7 81.0041C982.7 82.6262 982.847 83.896 983.14 84.8134L987.58 75.9783C987.114 75.3534 986.467 75.041 985.64 75.041C984.72 75.041 984 75.5329 983.48 76.5168C982.96 77.4874 982.7 78.9832 982.7 81.0041ZM985.64 86.9673C986.574 86.9673 987.3 86.482 987.82 85.5114C988.34 84.5275 988.6 83.0251 988.6 81.0041C988.6 79.289 988.433 77.9594 988.1 77.0154L983.66 85.9302C984.14 86.6216 984.8 86.9673 985.64 86.9673Z" fill="url(#paint93_linear_175_198)"/>
</g>
<defs>
<filter id="filter0_f_175_198" x="-548.19" y="-726.19" width="2141.38" height="1500.38" filterUnits="userSpaceOnUse" color-interpolation-filters="sRGB">
<feFlood flood-opacity="0" result="BackgroundImageFix"/>
<feBlend mode="normal" in="SourceGraphic" in2="BackgroundImageFix" result="shape"/>
<feGaussianBlur stdDeviation="200.095" result="effect1_foregroundBlur_175_198"/>
</filter>
<linearGradient id="paint0_linear_175_198" x1="62.5" y1="260" x2="62.5" y2="571.381" gradientUnits="userSpaceOnUse">
<stop stop-color="#F7DD43"/>
<stop offset="1" stop-color="#F7DD43" stop-opacity="0"/>
</linearGradient>
<linearGradient id="paint1_linear_175_198" x1="62.5" y1="260" x2="62.5" y2="571.381" gradientUnits="userSpaceOnUse">
<stop stop-color="#F7DD43"/>
<stop offset="1" stop-color="#F7DD43" stop-opacity="0"/>
</linearGradient>
<linearGradient id="paint2_linear_175_198" x1="62.5" y1="260" x2="62.5" y2="571.381" gradientUnits="userSpaceOnUse">
<stop stop-color="#F7DD43"/>
<stop offset="1" stop-color="#F7DD43" stop-opacity="0"/>
</linearGradient>
<linearGradient id="paint3_linear_175_198" x1="62.5" y1="260" x2="62.5" y2="571.381" gradientUnits="userSpaceOnUse">
<stop stop-color="#F7DD43"/>
<stop offset="1" stop-color="#F7DD43" stop-opacity="0"/>
</linearGradient>
<linearGradient id="paint4_linear_175_198" x1="62.5" y1="260" x2="62.5" y2="571.381" gradientUnits="userSpaceOnUse">
<stop stop-color="#F7DD43"/>
<stop offset="1" stop-color="#F7DD43" stop-opacity="0"/>
</linearGradient>
<linearGradient id="paint5_linear_175_198" x1="62.5" y1="260" x2="62.5" y2="571.381" gradientUnits="userSpaceOnUse">
<stop stop-color="#F7DD43"/>
<stop offset="1" stop-color="#F7DD43" stop-opacity="0"/>
</linearGradient>
<linearGradient id="paint6_linear_175_198" x1="62.5" y1="260" x2="62.5" y2="571.381" gradientUnits="userSpaceOnUse">
<stop stop-color="#F7DD43"/>
<stop offset="1" stop-color="#F7DD43" stop-opacity="0"/>
</linearGradient>
<linearGradient id="paint7_linear_175_198" x1="62.5" y1="260" x2="62.5" y2="571.381" gradientUnits="userSpaceOnUse">
<stop stop-color="#F7DD43"/>
<stop offset="1" stop-color="#F7DD43" stop-opacity="0"/>
</linearGradient>
<linearGradient id="paint8_linear_175_198" x1="62.5" y1="260" x2="62.5" y2="571.381" gradientUnits="userSpaceOnUse">
<stop stop-color="#F7DD43"/>
<stop offset="1" stop-color="#F7DD43" stop-opacity="0"/>
</linearGradient>
<linearGradient id="paint9_linear_175_198" x1="62.5" y1="260" x2="62.5" y2="571.381" gradientUnits="userSpaceOnUse">
<stop stop-color="#F7DD43"/>
<stop offset="1" stop-color="#F7DD43" stop-opacity="0"/>
</linearGradient>
<linearGradient id="paint10_linear_175_198" x1="62.5" y1="260" x2="62.5" y2="571.381" gradientUnits="userSpaceOnUse">
<stop stop-color="#F7DD43"/>
<stop offset="1" stop-color="#F7DD43" stop-opacity="0"/>
</linearGradient>
<linearGradient id="paint11_linear_175_198" x1="62.5" y1="260" x2="62.5" y2="571.381" gradientUnits="userSpaceOnUse">
<stop stop-color="#F7DD43"/>
<stop offset="1" stop-color="#F7DD43" stop-opacity="0"/>
</linearGradient>
<linearGradient id="paint12_linear_175_198" x1="62.5" y1="260" x2="62.5" y2="571.381" gradientUnits="userSpaceOnUse">
<stop stop-color="#F7DD43"/>
<stop offset="1" stop-color="#F7DD43" stop-opacity="0"/>
</linearGradient>
<linearGradient id="paint13_linear_175_198" x1="62.5" y1="260" x2="62.5" y2="571.381" gradientUnits="userSpaceOnUse">
<stop stop-color="#F7DD43"/>
<stop offset="1" stop-color="#F7DD43" stop-opacity="0"/>
</linearGradient>
<linearGradient id="paint14_linear_175_198" x1="62.5" y1="260" x2="62.5" y2="571.381" gradientUnits="userSpaceOnUse">
<stop stop-color="#F7DD43"/>
<stop offset="1" stop-color="#F7DD43" stop-opacity="0"/>
</linearGradient>
<linearGradient id="paint15_linear_175_198" x1="62.5" y1="260" x2="62.5" y2="571.381" gradientUnits="userSpaceOnUse">
<stop stop-color="#F7DD43"/>
<stop offset="1" stop-color="#F7DD43" stop-opacity="0"/>
</linearGradient>
<linearGradient id="paint16_linear_175_198" x1="62.5" y1="260" x2="62.5" y2="571.381" gradientUnits="userSpaceOnUse">
<stop stop-color="#F7DD43"/>
<stop offset="1" stop-color="#F7DD43" stop-opacity="0"/>
</linearGradient>
<linearGradient id="paint17_linear_175_198" x1="62.5" y1="260" x2="62.5" y2="571.381" gradientUnits="userSpaceOnUse">
<stop stop-color="#F7DD43"/>
<stop offset="1" stop-color="#F7DD43" stop-opacity="0"/>
</linearGradient>
<linearGradient id="paint18_linear_175_198" x1="62.5" y1="260" x2="62.5" y2="571.381" gradientUnits="userSpaceOnUse">
<stop stop-color="#F7DD43"/>
<stop offset="1" stop-color="#F7DD43" stop-opacity="0"/>
</linearGradient>
<linearGradient id="paint19_linear_175_198" x1="62.5" y1="260" x2="62.5" y2="571.381" gradientUnits="userSpaceOnUse">
<stop stop-color="#F7DD43"/>
<stop offset="1" stop-color="#F7DD43" stop-opacity="0"/>
</linearGradient>
<linearGradient id="paint20_linear_175_198" x1="62.5" y1="260" x2="62.5" y2="571.381" gradientUnits="userSpaceOnUse">
<stop stop-color="#F7DD43"/>
<stop offset="1" stop-color="#F7DD43" stop-opacity="0"/>
</linearGradient>
<linearGradient id="paint21_linear_175_198" x1="62.5" y1="260" x2="62.5" y2="571.381" gradientUnits="userSpaceOnUse">
<stop stop-color="#F7DD43"/>
<stop offset="1" stop-color="#F7DD43" stop-opacity="0"/>
</linearGradient>
<linearGradient id="paint22_linear_175_198" x1="62.5" y1="260" x2="62.5" y2="571.381" gradientUnits="userSpaceOnUse">
<stop stop-color="#F7DD43"/>
<stop offset="1" stop-color="#F7DD43" stop-opacity="0"/>
</linearGradient>
<linearGradient id="paint23_linear_175_198" x1="62.5" y1="260" x2="62.5" y2="571.381" gradientUnits="userSpaceOnUse">
<stop stop-color="#F7DD43"/>
<stop offset="1" stop-color="#F7DD43" stop-opacity="0"/>
</linearGradient>
<linearGradient id="paint24_linear_175_198" x1="62.5" y1="260" x2="62.5" y2="571.381" gradientUnits="userSpaceOnUse">
<stop stop-color="#F7DD43"/>
<stop offset="1" stop-color="#F7DD43" stop-opacity="0"/>
</linearGradient>
<linearGradient id="paint25_linear_175_198" x1="62.5" y1="260" x2="62.5" y2="571.381" gradientUnits="userSpaceOnUse">
<stop stop-color="#F7DD43"/>
<stop offset="1" stop-color="#F7DD43" stop-opacity="0"/>
</linearGradient>
<linearGradient id="paint26_linear_175_198" x1="62.5" y1="260" x2="62.5" y2="571.381" gradientUnits="userSpaceOnUse">
<stop stop-color="#F7DD43"/>
<stop offset="1" stop-color="#F7DD43" stop-opacity="0"/>
</linearGradient>
<linearGradient id="paint27_linear_175_198" x1="62.5" y1="260" x2="62.5" y2="571.381" gradientUnits="userSpaceOnUse">
<stop stop-color="#F7DD43"/>
<stop offset="1" stop-color="#F7DD43" stop-opacity="0"/>
</linearGradient>
<linearGradient id="paint28_linear_175_198" x1="62.5" y1="260" x2="62.5" y2="571.381" gradientUnits="userSpaceOnUse">
<stop stop-color="#F7DD43"/>
<stop offset="1" stop-color="#F7DD43" stop-opacity="0"/>
</linearGradient>
<linearGradient id="paint29_linear_175_198" x1="62.5" y1="260" x2="62.5" y2="571.381" gradientUnits="userSpaceOnUse">
<stop stop-color="#F7DD43"/>
<stop offset="1" stop-color="#F7DD43" stop-opacity="0"/>
</linearGradient>
<linearGradient id="paint30_linear_175_198" x1="62.5" y1="260" x2="62.5" y2="571.381" gradientUnits="userSpaceOnUse">
<stop stop-color="#F7DD43"/>
<stop offset="1" stop-color="#F7DD43" stop-opacity="0"/>
</linearGradient>
<linearGradient id="paint31_linear_175_198" x1="62.5" y1="260" x2="62.5" y2="571.381" gradientUnits="userSpaceOnUse">
<stop stop-color="#F7DD43"/>
<stop offset="1" stop-color="#F7DD43" stop-opacity="0"/>
</linearGradient>
<linearGradient id="paint32_linear_175_198" x1="62.5" y1="260" x2="62.5" y2="571.381" gradientUnits="userSpaceOnUse">
<stop stop-color="#F7DD43"/>
<stop offset="1" stop-color="#F7DD43" stop-opacity="0"/>
</linearGradient>
<linearGradient id="paint33_linear_175_198" x1="62.5" y1="260" x2="62.5" y2="571.381" gradientUnits="userSpaceOnUse">
<stop stop-color="#F7DD43"/>
<stop offset="1" stop-color="#F7DD43" stop-opacity="0"/>
</linearGradient>
<linearGradient id="paint34_linear_175_198" x1="62.5" y1="260" x2="62.5" y2="571.381" gradientUnits="userSpaceOnUse">
<stop stop-color="#F7DD43"/>
<stop offset="1" stop-color="#F7DD43" stop-opacity="0"/>
</linearGradient>
<linearGradient id="paint35_linear_175_198" x1="62.5" y1="260" x2="62.5" y2="571.381" gradientUnits="userSpaceOnUse">
<stop stop-color="#F7DD43"/>
<stop offset="1" stop-color="#F7DD43" stop-opacity="0"/>
</linearGradient>
<linearGradient id="paint36_linear_175_198" x1="62.5" y1="260" x2="62.5" y2="571.381" gradientUnits="userSpaceOnUse">
<stop stop-color="#F7DD43"/>
<stop offset="1" stop-color="#F7DD43" stop-opacity="0"/>
</linearGradient>
<linearGradient id="paint37_linear_175_198" x1="62.5" y1="260" x2="62.5" y2="571.381" gradientUnits="userSpaceOnUse">
<stop stop-color="#F7DD43"/>
<stop offset="1" stop-color="#F7DD43" stop-opacity="0"/>
</linearGradient>
<linearGradient id="paint38_linear_175_198" x1="62.5" y1="260" x2="62.5" y2="571.381" gradientUnits="userSpaceOnUse">
<stop stop-color="#F7DD43"/>
<stop offset="1" stop-color="#F7DD43" stop-opacity="0"/>
</linearGradient>
<linearGradient id="paint39_linear_175_198" x1="62.5" y1="260" x2="62.5" y2="571.381" gradientUnits="userSpaceOnUse">
<stop stop-color="#F7DD43"/>
<stop offset="1" stop-color="#F7DD43" stop-opacity="0"/>
</linearGradient>
<linearGradient id="paint40_linear_175_198" x1="62.5" y1="260" x2="62.5" y2="571.381" gradientUnits="userSpaceOnUse">
<stop stop-color="#F7DD43"/>
<stop offset="1" stop-color="#F7DD43" stop-opacity="0"/>
</linearGradient>
<linearGradient id="paint41_linear_175_198" x1="62.5" y1="260" x2="62.5" y2="571.381" gradientUnits="userSpaceOnUse">
<stop stop-color="#F7DD43"/>
<stop offset="1" stop-color="#F7DD43" stop-opacity="0"/>
</linearGradient>
<linearGradient id="paint42_linear_175_198" x1="62.5" y1="260" x2="62.5" y2="571.381" gradientUnits="userSpaceOnUse">
<stop stop-color="#F7DD43"/>
<stop offset="1" stop-color="#F7DD43" stop-opacity="0"/>
</linearGradient>
<linearGradient id="paint43_linear_175_198" x1="62.5" y1="260" x2="62.5" y2="571.381" gradientUnits="userSpaceOnUse">
<stop stop-color="#F7DD43"/>
<stop offset="1" stop-color="#F7DD43" stop-opacity="0"/>
</linearGradient>
<linearGradient id="paint44_linear_175_198" x1="62.5" y1="260" x2="62.5" y2="571.381" gradientUnits="userSpaceOnUse">
<stop stop-color="#F7DD43"/>
<stop offset="1" stop-color="#F7DD43" stop-opacity="0"/>
</linearGradient>
<linearGradient id="paint45_linear_175_198" x1="62.5" y1="260" x2="62.5" y2="571.381" gradientUnits="userSpaceOnUse">
<stop stop-color="#F7DD43"/>
<stop offset="1" stop-color="#F7DD43" stop-opacity="0"/>
</linearGradient>
<linearGradient id="paint46_linear_175_198" x1="62.5" y1="260" x2="62.5" y2="571.381" gradientUnits="userSpaceOnUse">
<stop stop-color="#F7DD43"/>
<stop offset="1" stop-color="#F7DD43" stop-opacity="0"/>
</linearGradient>
<linearGradient id="paint47_linear_175_198" x1="948.5" y1="-40" x2="948.5" y2="258.818" gradientUnits="userSpaceOnUse">
<stop stop-color="#F7DD43"/>
<stop offset="1" stop-color="#F7DD43" stop-opacity="0"/>
</linearGradient>
<linearGradient id="paint48_linear_175_198" x1="948.5" y1="-40" x2="948.5" y2="258.818" gradientUnits="userSpaceOnUse">
<stop stop-color="#F7DD43"/>
<stop offset="1" stop-color="#F7DD43" stop-opacity="0"/>
</linearGradient>
<linearGradient id="paint49_linear_175_198" x1="948.5" y1="-40" x2="948.5" y2="258.818" gradientUnits="userSpaceOnUse">
<stop stop-color="#F7DD43"/>
<stop offset="1" stop-color="#F7DD43" stop-opacity="0"/>
</linearGradient>
<linearGradient id="paint50_linear_175_198" x1="948.5" y1="-40" x2="948.5" y2="258.818" gradientUnits="userSpaceOnUse">
<stop stop-color="#F7DD43"/>
<stop offset="1" stop-color="#F7DD43" stop-opacity="0"/>
</linearGradient>
<linearGradient id="paint51_linear_175_198" x1="948.5" y1="-40" x2="948.5" y2="258.818" gradientUnits="userSpaceOnUse">
<stop stop-color="#F7DD43"/>
<stop offset="1" stop-color="#F7DD43" stop-opacity="0"/>
</linearGradient>
<linearGradient id="paint52_linear_175_198" x1="948.5" y1="-40" x2="948.5" y2="258.818" gradientUnits="userSpaceOnUse">
<stop stop-color="#F7DD43"/>
<stop offset="1" stop-color="#F7DD43" stop-opacity="0"/>
</linearGradient>
<linearGradient id="paint53_linear_175_198" x1="948.5" y1="-40" x2="948.5" y2="258.818" gradientUnits="userSpaceOnUse">
<stop stop-color="#F7DD43"/>
<stop offset="1" stop-color="#F7DD43" stop-opacity="0"/>
</linearGradient>
<linearGradient id="paint54_linear_175_198" x1="948.5" y1="-40" x2="948.5" y2="258.818" gradientUnits="userSpaceOnUse">
<stop stop-color="#F7DD43"/>
<stop offset="1" stop-color="#F7DD43" stop-opacity="0"/>
</linearGradient>
<linearGradient id="paint55_linear_175_198" x1="948.5" y1="-40" x2="948.5" y2="258.818" gradientUnits="userSpaceOnUse">
<stop stop-color="#F7DD43"/>
<stop offset="1" stop-color="#F7DD43" stop-opacity="0"/>
</linearGradient>
<linearGradient id="paint56_linear_175_198" x1="948.5" y1="-40" x2="948.5" y2="258.818" gradientUnits="userSpaceOnUse">
<stop stop-color="#F7DD43"/>
<stop offset="1" stop-color="#F7DD43" stop-opacity="0"/>
</linearGradient>
<linearGradient id="paint57_linear_175_198" x1="948.5" y1="-40" x2="948.5" y2="258.818" gradientUnits="userSpaceOnUse">
<stop stop-color="#F7DD43"/>
<stop offset="1" stop-color="#F7DD43" stop-opacity="0"/>
</linearGradient>
<linearGradient id="paint58_linear_175_198" x1="948.5" y1="-40" x2="948.5" y2="258.818" gradientUnits="userSpaceOnUse">
<stop stop-color="#F7DD43"/>
<stop offset="1" stop-color="#F7DD43" stop-opacity="0"/>
</linearGradient>
<linearGradient id="paint59_linear_175_198" x1="948.5" y1="-40" x2="948.5" y2="258.818" gradientUnits="userSpaceOnUse">
<stop stop-color="#F7DD43"/>
<stop offset="1" stop-color="#F7DD43" stop-opacity="0"/>
</linearGradient>
<linearGradient id="paint60_linear_175_198" x1="948.5" y1="-40" x2="948.5" y2="258.818" gradientUnits="userSpaceOnUse">
<stop stop-color="#F7DD43"/>
<stop offset="1" stop-color="#F7DD43" stop-opacity="0"/>
</linearGradient>
<linearGradient id="paint61_linear_175_198" x1="948.5" y1="-40" x2="948.5" y2="258.818" gradientUnits="userSpaceOnUse">
<stop stop-color="#F7DD43"/>
<stop offset="1" stop-color="#F7DD43" stop-opacity="0"/>
</linearGradient>
<linearGradient id="paint62_linear_175_198" x1="948.5" y1="-40" x2="948.5" y2="258.818" gradientUnits="userSpaceOnUse">
<stop stop-color="#F7DD43"/>
<stop offset="1" stop-color="#F7DD43" stop-opacity="0"/>
</linearGradient>
<linearGradient id="paint63_linear_175_198" x1="948.5" y1="-40" x2="948.5" y2="258.818" gradientUnits="userSpaceOnUse">
<stop stop-color="#F7DD43"/>
<stop offset="1" stop-color="#F7DD43" stop-opacity="0"/>
</linearGradient>
<linearGradient id="paint64_linear_175_198" x1="948.5" y1="-40" x2="948.5" y2="258.818" gradientUnits="userSpaceOnUse">
<stop stop-color="#F7DD43"/>
<stop offset="1" stop-color="#F7DD43" stop-opacity="0"/>
</linearGradient>
<linearGradient id="paint65_linear_175_198" x1="948.5" y1="-40" x2="948.5" y2="258.818" gradientUnits="userSpaceOnUse">
<stop stop-color="#F7DD43"/>
<stop offset="1" stop-color="#F7DD43" stop-opacity="0"/>
</linearGradient>
<linearGradient id="paint66_linear_175_198" x1="948.5" y1="-40" x2="948.5" y2="258.818" gradientUnits="userSpaceOnUse">
<stop stop-color="#F7DD43"/>
<stop offset="1" stop-color="#F7DD43" stop-opacity="0"/>
</linearGradient>
<linearGradient id="paint67_linear_175_198" x1="948.5" y1="-40" x2="948.5" y2="258.818" gradientUnits="userSpaceOnUse">
<stop stop-color="#F7DD43"/>
<stop offset="1" stop-color="#F7DD43" stop-opacity="0"/>
</linearGradient>
<linearGradient id="paint68_linear_175_198" x1="948.5" y1="-40" x2="948.5" y2="258.818" gradientUnits="userSpaceOnUse">
<stop stop-color="#F7DD43"/>
<stop offset="1" stop-color="#F7DD43" stop-opacity="0"/>
</linearGradient>
<linearGradient id="paint69_linear_175_198" x1="948.5" y1="-40" x2="948.5" y2="258.818" gradientUnits="userSpaceOnUse">
<stop stop-color="#F7DD43"/>
<stop offset="1" stop-color="#F7DD43" stop-opacity="0"/>
</linearGradient>
<linearGradient id="paint70_linear_175_198" x1="948.5" y1="-40" x2="948.5" y2="258.818" gradientUnits="userSpaceOnUse">
<stop stop-color="#F7DD43"/>
<stop offset="1" stop-color="#F7DD43" stop-opacity="0"/>
</linearGradient>
<linearGradient id="paint71_linear_175_198" x1="948.5" y1="-40" x2="948.5" y2="258.818" gradientUnits="userSpaceOnUse">
<stop stop-color="#F7DD43"/>
<stop offset="1" stop-color="#F7DD43" stop-opacity="0"/>
</linearGradient>
<linearGradient id="paint72_linear_175_198" x1="948.5" y1="-40" x2="948.5" y2="258.818" gradientUnits="userSpaceOnUse">
<stop stop-color="#F7DD43"/>
<stop offset="1" stop-color="#F7DD43" stop-opacity="0"/>
</linearGradient>
<linearGradient id="paint73_linear_175_198" x1="948.5" y1="-40" x2="948.5" y2="258.818" gradientUnits="userSpaceOnUse">
<stop stop-color="#F7DD43"/>
<stop offset="1" stop-color="#F7DD43" stop-opacity="0"/>
</linearGradient>
<linearGradient id="paint74_linear_175_198" x1="948.5" y1="-40" x2="948.5" y2="258.818" gradientUnits="userSpaceOnUse">
<stop stop-color="#F7DD43"/>
<stop offset="1" stop-color="#F7DD43" stop-opacity="0"/>
</linearGradient>
<linearGradient id="paint75_linear_175_198" x1="948.5" y1="-40" x2="948.5" y2="258.818" gradientUnits="userSpaceOnUse">
<stop stop-color="#F7DD43"/>
<stop offset="1" stop-color="#F7DD43" stop-opacity="0"/>
</linearGradient>
<linearGradient id="paint76_linear_175_198" x1="948.5" y1="-40" x2="948.5" y2="258.818" gradientUnits="userSpaceOnUse">
<stop stop-color="#F7DD43"/>
<stop offset="1" stop-color="#F7DD43" stop-opacity="0"/>
</linearGradient>
<linearGradient id="paint77_linear_175_198" x1="948.5" y1="-40" x2="948.5" y2="258.818" gradientUnits="userSpaceOnUse">
<stop stop-color="#F7DD43"/>
<stop offset="1" stop-color="#F7DD43" stop-opacity="0"/>
</linearGradient>
<linearGradient id="paint78_linear_175_198" x1="948.5" y1="-40" x2="948.5" y2="258.818" gradientUnits="userSpaceOnUse">
<stop stop-color="#F7DD43"/>
<stop offset="1" stop-color="#F7DD43" stop-opacity="0"/>
</linearGradient>
<linearGradient id="paint79_linear_175_198" x1="948.5" y1="-40" x2="948.5" y2="258.818" gradientUnits="userSpaceOnUse">
<stop stop-color="#F7DD43"/>
<stop offset="1" stop-color="#F7DD43" stop-opacity="0"/>
</linearGradient>
<linearGradient id="paint80_linear_175_198" x1="948.5" y1="-40" x2="948.5" y2="258.818" gradientUnits="userSpaceOnUse">
<stop stop-color="#F7DD43"/>
<stop offset="1" stop-color="#F7DD43" stop-opacity="0"/>
</linearGradient>
<linearGradient id="paint81_linear_175_198" x1="948.5" y1="-40" x2="948.5" y2="258.818" gradientUnits="userSpaceOnUse">
<stop stop-color="#F7DD43"/>
<stop offset="1" stop-color="#F7DD43" stop-opacity="0"/>
</linearGradient>
<linearGradient id="paint82_linear_175_198" x1="948.5" y1="-40" x2="948.5" y2="258.818" gradientUnits="userSpaceOnUse">
<stop stop-color="#F7DD43"/>
<stop offset="1" stop-color="#F7DD43" stop-opacity="0"/>
</linearGradient>
<linearGradient id="paint83_linear_175_198" x1="948.5" y1="-40" x2="948.5" y2="258.818" gradientUnits="userSpaceOnUse">
<stop stop-color="#F7DD43"/>
<stop offset="1" stop-color="#F7DD43" stop-opacity="0"/>
</linearGradient>
<linearGradient id="paint84_linear_175_198" x1="948.5" y1="-40" x2="948.5" y2="258.818" gradientUnits="userSpaceOnUse">
<stop stop-color="#F7DD43"/>
<stop offset="1" stop-color="#F7DD43" stop-opacity="0"/>
</linearGradient>
<linearGradient id="paint85_linear_175_198" x1="948.5" y1="-40" x2="948.5" y2="258.818" gradientUnits="userSpaceOnUse">
<stop stop-color="#F7DD43"/>
<stop offset="1" stop-color="#F7DD43" stop-opacity="0"/>
</linearGradient>
<linearGradient id="paint86_linear_175_198" x1="948.5" y1="-40" x2="948.5" y2="258.818" gradientUnits="userSpaceOnUse">
<stop stop-color="#F7DD43"/>
<stop offset="1" stop-color="#F7DD43" stop-opacity="0"/>
</linearGradient>
<linearGradient id="paint87_linear_175_198" x1="948.5" y1="-40" x2="948.5" y2="258.818" gradientUnits="userSpaceOnUse">
<stop stop-color="#F7DD43"/>
<stop offset="1" stop-color="#F7DD43" stop-opacity="0"/>
</linearGradient>
<linearGradient id="paint88_linear_175_198" x1="948.5" y1="-40" x2="948.5" y2="258.818" gradientUnits="userSpaceOnUse">
<stop stop-color="#F7DD43"/>
<stop offset="1" stop-color="#F7DD43" stop-opacity="0"/>
</linearGradient>
<linearGradient id="paint89_linear_175_198" x1="948.5" y1="-40" x2="948.5" y2="258.818" gradientUnits="userSpaceOnUse">
<stop stop-color="#F7DD43"/>
<stop offset="1" stop-color="#F7DD43" stop-opacity="0"/>
</linearGradient>
<linearGradient id="paint90_linear_175_198" x1="948.5" y1="-40" x2="948.5" y2="258.818" gradientUnits="userSpaceOnUse">
<stop stop-color="#F7DD43"/>
<stop offset="1" stop-color="#F7DD43" stop-opacity="0"/>
</linearGradient>
<linearGradient id="paint91_linear_175_198" x1="948.5" y1="-40" x2="948.5" y2="258.818" gradientUnits="userSpaceOnUse">
<stop stop-color="#F7DD43"/>
<stop offset="1" stop-color="#F7DD43" stop-opacity="0"/>
</linearGradient>
<linearGradient id="paint92_linear_175_198" x1="948.5" y1="-40" x2="948.5" y2="258.818" gradientUnits="userSpaceOnUse">
<stop stop-color="#F7DD43"/>
<stop offset="1" stop-color="#F7DD43" stop-opacity="0"/>
</linearGradient>
<linearGradient id="paint93_linear_175_198" x1="948.5" y1="-40" x2="948.5" y2="258.818" gradientUnits="userSpaceOnUse">
<stop stop-color="#F7DD43"/>
<stop offset="1" stop-color="#F7DD43" stop-opacity="0"/>
</linearGradient>
</defs>
</svg>
